<svg width="1044" height="261" viewBox="0 0 1044 261" fill="none" xmlns="http://www.w3.org/2000/svg">
<g clip-path="url(#clip0_872_2)">
<path d="M693.132 129.687C689.882 123.403 685.55 118.419 680.132 114.736C674.716 111.051 668.102 109.21 660.306 109.21C656.622 109.21 652.827 109.643 648.93 110.51C645.244 111.376 641.884 112.785 638.852 114.736C635.82 116.469 633.324 118.744 631.379 121.561C629.64 124.378 628.774 127.844 628.774 131.962C628.774 139.112 631.269 144.312 636.253 147.563C641.237 150.813 648.71 153.631 658.678 156.014L680.456 161.214C691.07 163.598 699.85 168.473 706.786 175.841C713.935 182.991 717.51 191.984 717.51 202.818C717.51 211.052 715.777 218.203 712.306 224.27C709.061 230.12 704.614 234.996 698.983 238.897C693.566 242.58 687.283 245.289 680.132 247.022C672.977 248.756 665.724 249.623 658.354 249.623C646.654 249.623 635.71 247.455 625.528 243.122C615.56 238.571 607.001 230.878 599.845 220.045L618.372 207.369C622.71 214.303 628.127 219.828 634.624 223.945C641.347 228.062 649.253 230.12 658.354 230.12C662.686 230.12 667.024 229.688 671.354 228.821C675.686 227.737 679.48 226.221 682.731 224.27C686.196 222.103 688.905 219.394 690.857 216.144C693.024 212.894 694.109 209.102 694.109 204.769C694.109 197.184 691.29 191.768 685.654 188.517C680.022 185.05 673.196 182.341 665.18 180.391L644.379 175.516C641.779 174.866 638.205 173.782 633.654 172.265C629.317 170.748 624.985 168.473 620.648 165.439C616.536 162.406 612.955 158.506 609.923 153.739C606.891 148.755 605.372 142.688 605.372 135.537C605.372 127.737 606.891 120.91 609.923 115.06C613.175 109.21 617.402 104.443 622.6 100.759C628.017 97.075 634.088 94.3664 640.804 92.6334C647.52 90.683 654.456 89.7082 661.606 89.7082C672.221 89.7082 682.079 91.7664 691.18 95.8836C700.283 100.001 707.322 107.043 712.306 117.011L693.132 129.687ZM777.245 245.722H755.79V0H777.245V245.722ZM915.455 169.99C910.039 169.99 903.212 170.316 894.983 170.966C886.961 171.399 879.164 172.698 871.576 174.866C864.212 176.816 857.819 179.957 852.402 184.291C847.198 188.625 844.599 194.584 844.599 202.167C844.599 207.151 845.576 211.485 847.528 215.169C849.693 218.636 852.512 221.562 855.977 223.945C859.442 226.112 863.236 227.737 867.354 228.821C871.686 229.688 876.023 230.12 880.354 230.12C888.157 230.12 894.873 228.821 900.503 226.221C906.354 223.619 911.234 220.153 915.132 215.819C919.031 211.269 921.849 206.068 923.581 200.219C925.533 194.15 926.51 187.759 926.51 181.04V169.99H915.455ZM926.51 152.438V148.538C926.51 122.319 913.51 109.21 887.503 109.21C869.734 109.21 854.244 115.168 841.025 127.086L828.025 111.81C842.324 97.075 863.78 89.7082 892.378 89.7082C899.748 89.7082 906.787 90.7916 913.51 92.9585C920.439 95.1254 926.4 98.4836 931.384 103.034C936.368 107.368 940.375 112.893 943.407 119.611C946.446 126.327 947.959 134.345 947.959 143.662V211.594C947.959 217.445 948.178 223.619 948.611 230.12C949.258 236.404 949.911 241.606 950.558 245.722H929.761C929.108 242.038 928.565 238.03 928.132 233.696C927.919 229.362 927.809 225.138 927.809 221.02H927.156C920.873 231.204 913.4 238.571 904.732 243.122C896.282 247.455 885.881 249.623 873.528 249.623C866.812 249.623 860.308 248.647 854.025 246.697C847.741 244.964 842.111 242.255 837.127 238.571C832.356 234.671 828.458 230.013 825.426 224.595C822.608 218.961 821.198 212.461 821.198 205.094C821.198 192.742 824.34 183.1 830.624 176.165C837.127 169.015 845.142 163.706 854.677 160.239C864.426 156.772 874.718 154.606 885.551 153.739C896.606 152.872 906.684 152.438 915.779 152.438H926.51ZM1028.75 35.1029C1028.75 39.6532 1027.12 43.4452 1023.87 46.479C1020.62 49.2962 1017.05 50.704 1013.15 50.704C1009.24 50.704 1005.67 49.2962 1002.42 46.479C999.171 43.4452 997.543 39.6532 997.543 35.1029C997.543 30.5527 999.171 26.8686 1002.42 24.052C1005.67 21.0183 1009.24 19.5017 1013.15 19.5017C1017.05 19.5017 1020.62 21.0183 1023.87 24.052C1027.12 26.8686 1028.75 30.5527 1028.75 35.1029ZM1023.87 245.722H1002.42V93.6082H1023.87V245.722Z" fill="white"/>
<path d="M50.7965 125.57C78.8446 125.57 101.582 102.833 101.582 74.7846C101.582 46.7363 78.8446 23.9988 50.7965 23.9988C22.7482 23.9988 0.0106201 46.7363 0.0106201 74.7846C0.0106201 102.833 22.7482 125.57 50.7965 125.57Z" fill="white"/>
<path d="M179.438 125.563C207.486 125.563 230.224 102.825 230.224 74.7766C230.224 46.7284 207.486 23.9907 179.438 23.9907C151.39 23.9907 128.652 46.7284 128.652 74.7766C128.652 102.825 151.39 125.563 179.438 125.563Z" fill="white"/>
<path d="M308.101 125.563C336.148 125.563 358.886 102.825 358.886 74.7766C358.886 46.7284 336.148 23.9907 308.101 23.9907C280.052 23.9907 257.314 46.7284 257.314 74.7766C257.314 102.825 280.052 125.563 308.101 125.563Z" fill="white"/>
<path d="M436.763 125.563C464.812 125.563 487.549 102.825 487.549 74.7766C487.549 46.7284 464.812 23.9907 436.763 23.9907C408.715 23.9907 385.978 46.7284 385.978 74.7766C385.978 102.825 408.715 125.563 436.763 125.563Z" fill="white"/>
<path d="M50.7858 261.001C78.8341 261.001 101.572 238.264 101.572 210.215C101.572 182.167 78.8341 159.43 50.7858 159.43C22.7376 159.43 0 182.167 0 210.215C0 238.264 22.7376 261.001 50.7858 261.001Z" fill="white"/>
<path d="M179.438 261.001C207.486 261.001 230.224 238.264 230.224 210.215C230.224 182.167 207.486 159.43 179.438 159.43C151.39 159.43 128.652 182.167 128.652 210.215C128.652 238.264 151.39 261.001 179.438 261.001Z" fill="white"/>
<path d="M308.101 261.001C336.148 261.001 358.886 238.264 358.886 210.215C358.886 182.167 336.148 159.43 308.101 159.43C280.052 159.43 257.314 182.167 257.314 210.215C257.314 238.264 280.052 261.001 308.101 261.001Z" fill="white"/>
<path d="M436.763 261.001C464.812 261.001 487.549 238.264 487.549 210.215C487.549 182.167 464.812 159.43 436.763 159.43C408.715 159.43 385.978 182.167 385.978 210.215C385.978 238.264 408.715 261.001 436.763 261.001Z" fill="white"/>
</g>
<defs>
<clipPath id="clip0_872_2">
<rect width="1044" height="261" fill="white"/>
</clipPath>
</defs>
</svg>
