<svg width="400" height="212" viewBox="0 0 400 212" fill="none" xmlns="http://www.w3.org/2000/svg">
<rect x="0.5" y="0.5" width="399" height="211" rx="7.5" fill="#1E1F24"/>
<path d="M26.6719 24.4929C26.6188 24.0223 26.4001 23.6577 26.0156 23.3991C25.6312 23.1373 25.1473 23.0064 24.5639 23.0064C24.1463 23.0064 23.785 23.0727 23.4801 23.2053C23.1752 23.3345 22.9382 23.5135 22.7692 23.7422C22.6035 23.9676 22.5206 24.2244 22.5206 24.5128C22.5206 24.7547 22.5769 24.9635 22.6896 25.1392C22.8056 25.3149 22.9564 25.4624 23.142 25.5817C23.331 25.6977 23.5331 25.7955 23.7486 25.875C23.964 25.9512 24.1712 26.0142 24.37 26.0639L25.3643 26.3224C25.6892 26.402 26.0223 26.5097 26.3636 26.6456C26.705 26.7815 27.0215 26.9605 27.3132 27.1825C27.6049 27.4046 27.8402 27.6797 28.0192 28.0078C28.2015 28.3359 28.2926 28.7287 28.2926 29.1861C28.2926 29.7628 28.1435 30.2749 27.8452 30.7223C27.5502 31.1697 27.121 31.5227 26.5575 31.7812C25.9974 32.0398 25.3196 32.169 24.5241 32.169C23.7618 32.169 23.1023 32.0481 22.5455 31.8061C21.9886 31.5642 21.5528 31.2211 21.2379 30.777C20.9231 30.3295 20.7491 29.7992 20.7159 29.1861H22.2571C22.2869 29.554 22.4063 29.8606 22.6151 30.1058C22.8272 30.3478 23.0973 30.5284 23.4254 30.6477C23.7569 30.7637 24.1198 30.8217 24.5142 30.8217C24.9484 30.8217 25.3345 30.7538 25.6726 30.6179C26.014 30.4787 26.2824 30.2865 26.478 30.0412C26.6735 29.7926 26.7713 29.5026 26.7713 29.1712C26.7713 28.8696 26.6851 28.6226 26.5128 28.4304C26.3438 28.2382 26.1134 28.0791 25.8217 27.9531C25.5334 27.8272 25.2069 27.7161 24.8423 27.62L23.6392 27.2919C22.8239 27.0698 22.1776 26.7434 21.7003 26.3125C21.2263 25.8816 20.9893 25.3116 20.9893 24.6023C20.9893 24.0156 21.1484 23.5036 21.4666 23.0661C21.7848 22.6286 22.2157 22.2888 22.7592 22.0469C23.3028 21.8016 23.916 21.679 24.5987 21.679C25.2881 21.679 25.8963 21.8 26.4233 22.0419C26.9536 22.2839 27.3712 22.617 27.6761 23.0412C27.9811 23.4621 28.1402 23.946 28.1534 24.4929H26.6719ZM31.4956 27.4659V32H30.0091V21.8182H31.4757V25.6065H31.5701C31.7491 25.1955 32.0225 24.8691 32.3904 24.6271C32.7583 24.3852 33.2389 24.2642 33.8322 24.2642C34.3559 24.2642 34.8133 24.3719 35.2044 24.5874C35.5988 24.8028 35.9037 25.1243 36.1191 25.5518C36.3379 25.9761 36.4473 26.5064 36.4473 27.1428V32H34.9608V27.3217C34.9608 26.7616 34.8166 26.3274 34.5282 26.0192C34.2399 25.7076 33.8388 25.5518 33.3251 25.5518C32.9738 25.5518 32.6589 25.6264 32.3805 25.7756C32.1054 25.9247 31.8883 26.1435 31.7292 26.4318C31.5734 26.7169 31.4956 27.0616 31.4956 27.4659ZM40.6532 32.169C40.1693 32.169 39.7318 32.0795 39.3407 31.9006C38.9496 31.7183 38.6397 31.4548 38.411 31.1101C38.1857 30.7654 38.073 30.3428 38.073 29.8423C38.073 29.4115 38.1558 29.0568 38.3216 28.7784C38.4873 28.5 38.711 28.2796 38.9927 28.1172C39.2744 27.9548 39.5893 27.8321 39.9373 27.7493C40.2853 27.6664 40.64 27.6035 41.0012 27.5604C41.4586 27.5073 41.8298 27.4643 42.1149 27.4311C42.3999 27.3946 42.6071 27.3366 42.7363 27.2571C42.8656 27.1776 42.9302 27.0483 42.9302 26.8693V26.8345C42.9302 26.4003 42.8076 26.0639 42.5623 25.8253C42.3204 25.5866 41.9591 25.4673 41.4785 25.4673C40.978 25.4673 40.5836 25.5784 40.2953 25.8004C40.0102 26.0192 39.813 26.2628 39.7037 26.5312L38.3066 26.2131C38.4724 25.7491 38.7143 25.3745 39.0325 25.0895C39.354 24.8011 39.7235 24.5923 40.1412 24.4631C40.5588 24.3305 40.9979 24.2642 41.4586 24.2642C41.7636 24.2642 42.0867 24.3007 42.4281 24.3736C42.7728 24.4432 43.0943 24.5724 43.3926 24.7614C43.6942 24.9503 43.9411 25.2204 44.1333 25.5717C44.3256 25.9197 44.4217 26.3722 44.4217 26.929V32H42.97V30.956H42.9103C42.8142 31.1482 42.67 31.3371 42.4778 31.5227C42.2856 31.7083 42.0386 31.8625 41.737 31.9851C41.4354 32.1077 41.0742 32.169 40.6532 32.169ZM40.9764 30.9759C41.3874 30.9759 41.7387 30.8946 42.0304 30.7322C42.3253 30.5698 42.5491 30.3577 42.7015 30.0959C42.8573 29.8307 42.9352 29.5473 42.9352 29.2457V28.2614C42.8822 28.3144 42.7794 28.3641 42.627 28.4105C42.4778 28.4536 42.3071 28.4917 42.1149 28.5249C41.9226 28.5547 41.7354 28.5829 41.5531 28.6094C41.3708 28.6326 41.2183 28.6525 41.0957 28.669C40.8074 28.7055 40.5439 28.7668 40.3052 28.853C40.0699 28.9392 39.881 29.0634 39.7385 29.2259C39.5993 29.3849 39.5297 29.5971 39.5297 29.8622C39.5297 30.2301 39.6655 30.5085 39.9373 30.6974C40.2091 30.883 40.5555 30.9759 40.9764 30.9759ZM46.4016 32V24.3636H47.8384V25.5767H47.918C48.0572 25.1657 48.3024 24.8426 48.6538 24.6072C49.0084 24.3686 49.4094 24.2493 49.8569 24.2493C49.9497 24.2493 50.0591 24.2526 50.185 24.2592C50.3143 24.2659 50.4154 24.2741 50.4883 24.2841V25.706C50.4286 25.6894 50.3226 25.6712 50.1701 25.6513C50.0176 25.6281 49.8652 25.6165 49.7127 25.6165C49.3614 25.6165 49.0482 25.6911 48.7731 25.8402C48.5013 25.986 48.2859 26.1899 48.1268 26.4517C47.9677 26.7102 47.8881 27.0052 47.8881 27.3366V32H46.4016ZM54.7924 32.1541C54.0401 32.1541 53.3921 31.9934 52.8485 31.6719C52.3083 31.3471 51.8907 30.8913 51.5957 30.3047C51.304 29.7147 51.1582 29.0237 51.1582 28.2315C51.1582 27.4493 51.304 26.7599 51.5957 26.1634C51.8907 25.5668 52.3017 25.1011 52.8287 24.7663C53.359 24.4316 53.9788 24.2642 54.688 24.2642C55.1189 24.2642 55.5365 24.3355 55.9409 24.478C56.3452 24.6205 56.7082 24.8442 57.0297 25.1491C57.3511 25.4541 57.6047 25.8501 57.7903 26.3374C57.9759 26.8213 58.0687 27.4096 58.0687 28.1023V28.6293H51.9984V27.5156H56.612C56.612 27.1245 56.5325 26.7782 56.3734 26.4766C56.2143 26.1716 55.9906 25.9313 55.7022 25.7557C55.4172 25.58 55.0824 25.4922 54.698 25.4922C54.2804 25.4922 53.9158 25.5949 53.6042 25.8004C53.296 26.0026 53.0574 26.2678 52.8883 26.5959C52.7226 26.9207 52.6397 27.2737 52.6397 27.6548V28.5249C52.6397 29.0353 52.7292 29.4695 52.9082 29.8274C53.0905 30.1854 53.344 30.4588 53.6689 30.6477C53.9937 30.8333 54.3732 30.9261 54.8074 30.9261C55.0891 30.9261 55.3459 30.8864 55.5779 30.8068C55.81 30.724 56.0105 30.6013 56.1795 30.4389C56.3485 30.2765 56.4778 30.076 56.5673 29.8374L57.9743 30.0909C57.8616 30.5052 57.6594 30.8681 57.3677 31.1797C57.0794 31.4879 56.7164 31.7282 56.2789 31.9006C55.8448 32.0696 55.3493 32.1541 54.7924 32.1541Z" fill="#E3E4E8"/>
<rect x="20" y="53" width="39" height="2" fill="#477FF7"/>
<path d="M84.1186 32V21.8182H87.7479C88.54 21.8182 89.1963 21.9624 89.7166 22.2507C90.237 22.5391 90.6264 22.9335 90.8849 23.4339C91.1435 23.9311 91.2727 24.4912 91.2727 25.1143C91.2727 25.7408 91.1418 26.3042 90.88 26.8047C90.6214 27.3018 90.2304 27.6963 89.7067 27.9879C89.1863 28.2763 88.5317 28.4205 87.7429 28.4205H85.2472V27.1179H87.6037C88.1042 27.1179 88.5102 27.0317 88.8217 26.8594C89.1333 26.6837 89.362 26.4451 89.5078 26.1435C89.6536 25.8419 89.7266 25.4988 89.7266 25.1143C89.7266 24.7299 89.6536 24.3885 89.5078 24.0902C89.362 23.7919 89.1316 23.5582 88.8168 23.3892C88.5052 23.2202 88.0942 23.1357 87.5838 23.1357H85.6548V32H84.1186ZM97.7917 28.8331V24.3636H99.2832V32H97.8216V30.6776H97.742C97.5663 31.0852 97.2846 31.425 96.8968 31.6967C96.5124 31.9652 96.0334 32.0994 95.46 32.0994C94.9695 32.0994 94.5353 31.9917 94.1575 31.7763C93.783 31.5575 93.488 31.2344 93.2725 30.8068C93.0604 30.3793 92.9544 29.8506 92.9544 29.2209V24.3636H94.4409V29.0419C94.4409 29.5623 94.585 29.9766 94.8734 30.2848C95.1618 30.593 95.5363 30.7472 95.997 30.7472C96.2754 30.7472 96.5521 30.6776 96.8272 30.5384C97.1056 30.3991 97.336 30.1887 97.5183 29.907C97.7039 29.6252 97.795 29.2673 97.7917 28.8331ZM101.4 32V21.8182H102.886V25.6016H102.976C103.062 25.4425 103.186 25.2585 103.349 25.0497C103.511 24.8409 103.737 24.6586 104.025 24.5028C104.313 24.3438 104.694 24.2642 105.168 24.2642C105.785 24.2642 106.335 24.42 106.819 24.7315C107.303 25.0431 107.682 25.4922 107.957 26.0788C108.236 26.6655 108.375 27.3714 108.375 28.1967C108.375 29.022 108.237 29.7296 107.962 30.3196C107.687 30.9062 107.309 31.3587 106.829 31.6768C106.348 31.9917 105.8 32.1491 105.183 32.1491C104.719 32.1491 104.34 32.0713 104.045 31.9155C103.753 31.7597 103.524 31.5774 103.359 31.3686C103.193 31.1598 103.065 30.9742 102.976 30.8118H102.852V32H101.4ZM102.857 28.1818C102.857 28.7187 102.934 29.1894 103.09 29.5938C103.246 29.9981 103.471 30.3146 103.766 30.5433C104.061 30.7687 104.423 30.8814 104.85 30.8814C105.294 30.8814 105.665 30.7637 105.964 30.5284C106.262 30.2898 106.487 29.9666 106.64 29.5589C106.796 29.1513 106.874 28.6922 106.874 28.1818C106.874 27.678 106.797 27.2256 106.645 26.8246C106.496 26.4235 106.27 26.107 105.969 25.875C105.67 25.643 105.298 25.527 104.85 25.527C104.419 25.527 104.055 25.638 103.756 25.8601C103.461 26.0821 103.238 26.392 103.085 26.7898C102.933 27.1875 102.857 27.6515 102.857 28.1818ZM111.531 21.8182V32H110.044V21.8182H111.531ZM113.531 32V24.3636H115.017V32H113.531ZM114.281 23.1854C114.023 23.1854 113.801 23.0992 113.615 22.9268C113.433 22.7512 113.342 22.5424 113.342 22.3004C113.342 22.0552 113.433 21.8464 113.615 21.674C113.801 21.4983 114.023 21.4105 114.281 21.4105C114.54 21.4105 114.76 21.4983 114.942 21.674C115.128 21.8464 115.221 22.0552 115.221 22.3004C115.221 22.5424 115.128 22.7512 114.942 22.9268C114.76 23.0992 114.54 23.1854 114.281 23.1854ZM122.739 26.228L121.392 26.4666C121.336 26.2943 121.246 26.1302 121.123 25.9744C121.004 25.8187 120.842 25.6911 120.636 25.5916C120.431 25.4922 120.174 25.4425 119.866 25.4425C119.445 25.4425 119.093 25.5369 118.812 25.7259C118.53 25.9115 118.389 26.1518 118.389 26.4467C118.389 26.7019 118.483 26.9074 118.672 27.0632C118.861 27.219 119.166 27.3466 119.587 27.446L120.8 27.7244C121.503 27.8868 122.027 28.1371 122.371 28.4751C122.716 28.8132 122.888 29.2524 122.888 29.7926C122.888 30.25 122.756 30.6577 122.491 31.0156C122.229 31.3703 121.863 31.6487 121.392 31.8509C120.925 32.053 120.383 32.1541 119.766 32.1541C118.911 32.1541 118.213 31.9718 117.673 31.6072C117.133 31.2393 116.801 30.7173 116.679 30.0412L118.116 29.8224C118.205 30.197 118.389 30.4804 118.667 30.6726C118.946 30.8615 119.309 30.956 119.756 30.956C120.243 30.956 120.633 30.8549 120.925 30.6527C121.216 30.4472 121.362 30.197 121.362 29.902C121.362 29.6634 121.273 29.4628 121.094 29.3004C120.918 29.138 120.648 29.0154 120.283 28.9325L118.991 28.6491C118.278 28.4867 117.751 28.2282 117.41 27.8736C117.072 27.5189 116.903 27.0698 116.903 26.5263C116.903 26.0755 117.028 25.6811 117.28 25.343C117.532 25.005 117.88 24.7415 118.324 24.5526C118.769 24.3603 119.277 24.2642 119.851 24.2642C120.676 24.2642 121.326 24.4432 121.8 24.8011C122.273 25.1558 122.587 25.6314 122.739 26.228ZM126.009 27.4659V32H124.523V21.8182H125.989V25.6065H126.084C126.263 25.1955 126.536 24.8691 126.904 24.6271C127.272 24.3852 127.753 24.2642 128.346 24.2642C128.87 24.2642 129.327 24.3719 129.718 24.5874C130.112 24.8028 130.417 25.1243 130.633 25.5518C130.852 25.9761 130.961 26.5064 130.961 27.1428V32H129.474V27.3217C129.474 26.7616 129.33 26.3274 129.042 26.0192C128.754 25.7076 128.353 25.5518 127.839 25.5518C127.487 25.5518 127.173 25.6264 126.894 25.7756C126.619 25.9247 126.402 26.1435 126.243 26.4318C126.087 26.7169 126.009 27.0616 126.009 27.4659ZM140.214 24.3636V25.5568H136.043V24.3636H140.214ZM137.162 22.5341H138.648V29.7578C138.648 30.0462 138.691 30.2633 138.778 30.4091C138.864 30.5516 138.975 30.6494 139.111 30.7024C139.25 30.7521 139.401 30.777 139.563 30.777C139.682 30.777 139.787 30.7687 139.876 30.7521C139.966 30.7356 140.035 30.7223 140.085 30.7124L140.354 31.9403C140.267 31.9735 140.145 32.0066 139.986 32.0398C139.827 32.0762 139.628 32.0961 139.389 32.0994C138.998 32.1061 138.633 32.0365 138.295 31.8906C137.957 31.7448 137.684 31.5194 137.475 31.2145C137.266 30.9096 137.162 30.5268 137.162 30.0661V22.5341ZM145.068 32.1541C144.315 32.1541 143.667 31.9934 143.124 31.6719C142.584 31.3471 142.166 30.8913 141.871 30.3047C141.579 29.7147 141.434 29.0237 141.434 28.2315C141.434 27.4493 141.579 26.7599 141.871 26.1634C142.166 25.5668 142.577 25.1011 143.104 24.7663C143.634 24.4316 144.254 24.2642 144.963 24.2642C145.394 24.2642 145.812 24.3355 146.216 24.478C146.621 24.6205 146.984 24.8442 147.305 25.1491C147.627 25.4541 147.88 25.8501 148.066 26.3374C148.251 26.8213 148.344 27.4096 148.344 28.1023V28.6293H142.274V27.5156H146.887C146.887 27.1245 146.808 26.7782 146.649 26.4766C146.49 26.1716 146.266 25.9313 145.978 25.7557C145.693 25.58 145.358 25.4922 144.973 25.4922C144.556 25.4922 144.191 25.5949 143.88 25.8004C143.571 26.0026 143.333 26.2678 143.164 26.5959C142.998 26.9207 142.915 27.2737 142.915 27.6548V28.5249C142.915 29.0353 143.005 29.4695 143.184 29.8274C143.366 30.1854 143.619 30.4588 143.944 30.6477C144.269 30.8333 144.649 30.9261 145.083 30.9261C145.364 30.9261 145.621 30.8864 145.853 30.8068C146.085 30.724 146.286 30.6013 146.455 30.4389C146.624 30.2765 146.753 30.076 146.843 29.8374L148.25 30.0909C148.137 30.5052 147.935 30.8681 147.643 31.1797C147.355 31.4879 146.992 31.7282 146.554 31.9006C146.12 32.0696 145.625 32.1541 145.068 32.1541ZM149.993 32V24.3636H151.42V25.6065H151.515C151.674 25.1856 151.934 24.8575 152.295 24.6222C152.657 24.3835 153.089 24.2642 153.593 24.2642C154.103 24.2642 154.531 24.3835 154.876 24.6222C155.224 24.8608 155.48 25.1889 155.646 25.6065H155.726C155.908 25.1989 156.198 24.8741 156.596 24.6321C156.993 24.3868 157.467 24.2642 158.018 24.2642C158.71 24.2642 159.275 24.4813 159.713 24.9155C160.154 25.3497 160.374 26.0043 160.374 26.8793V32H158.888V27.0185C158.888 26.5014 158.747 26.1269 158.465 25.8949C158.183 25.6629 157.847 25.5469 157.456 25.5469C156.972 25.5469 156.596 25.696 156.327 25.9943C156.059 26.2893 155.925 26.6688 155.925 27.1328V32H154.443V26.924C154.443 26.5097 154.314 26.1766 154.055 25.9247C153.797 25.6728 153.46 25.5469 153.046 25.5469C152.764 25.5469 152.504 25.6214 152.265 25.7706C152.03 25.9164 151.84 26.1203 151.694 26.3821C151.551 26.6439 151.48 26.9472 151.48 27.2919V32H149.993ZM162.366 34.8636V24.3636H163.818V25.6016H163.942C164.029 25.4425 164.153 25.2585 164.315 25.0497C164.478 24.8409 164.703 24.6586 164.991 24.5028C165.28 24.3438 165.661 24.2642 166.135 24.2642C166.751 24.2642 167.302 24.42 167.786 24.7315C168.269 25.0431 168.649 25.4922 168.924 26.0788C169.202 26.6655 169.342 27.3714 169.342 28.1967C169.342 29.022 169.204 29.7296 168.929 30.3196C168.654 30.9062 168.276 31.3587 167.795 31.6768C167.315 31.9917 166.766 32.1491 166.15 32.1491C165.686 32.1491 165.306 32.0713 165.011 31.9155C164.72 31.7597 164.491 31.5774 164.325 31.3686C164.16 31.1598 164.032 30.9742 163.942 30.8118H163.853V34.8636H162.366ZM163.823 28.1818C163.823 28.7187 163.901 29.1894 164.057 29.5938C164.213 29.9981 164.438 30.3146 164.733 30.5433C165.028 30.7687 165.389 30.8814 165.817 30.8814C166.261 30.8814 166.632 30.7637 166.93 30.5284C167.229 30.2898 167.454 29.9666 167.607 29.5589C167.762 29.1513 167.84 28.6922 167.84 28.1818C167.84 27.678 167.764 27.2256 167.612 26.8246C167.462 26.4235 167.237 26.107 166.935 25.875C166.637 25.643 166.264 25.527 165.817 25.527C165.386 25.527 165.021 25.638 164.723 25.8601C164.428 26.0821 164.204 26.392 164.052 26.7898C163.899 27.1875 163.823 27.6515 163.823 28.1818ZM172.494 21.8182V32H171.007V21.8182H172.494ZM176.716 32.169C176.232 32.169 175.794 32.0795 175.403 31.9006C175.012 31.7183 174.702 31.4548 174.474 31.1101C174.248 30.7654 174.135 30.3428 174.135 29.8423C174.135 29.4115 174.218 29.0568 174.384 28.7784C174.55 28.5 174.773 28.2796 175.055 28.1172C175.337 27.9548 175.652 27.8321 176 27.7493C176.348 27.6664 176.702 27.6035 177.064 27.5604C177.521 27.5073 177.892 27.4643 178.177 27.4311C178.462 27.3946 178.67 27.3366 178.799 27.2571C178.928 27.1776 178.993 27.0483 178.993 26.8693V26.8345C178.993 26.4003 178.87 26.0639 178.625 25.8253C178.383 25.5866 178.022 25.4673 177.541 25.4673C177.041 25.4673 176.646 25.5784 176.358 25.8004C176.073 26.0192 175.876 26.2628 175.766 26.5312L174.369 26.2131C174.535 25.7491 174.777 25.3745 175.095 25.0895C175.416 24.8011 175.786 24.5923 176.204 24.4631C176.621 24.3305 177.06 24.2642 177.521 24.2642C177.826 24.2642 178.149 24.3007 178.491 24.3736C178.835 24.4432 179.157 24.5724 179.455 24.7614C179.757 24.9503 180.004 25.2204 180.196 25.5717C180.388 25.9197 180.484 26.3722 180.484 26.929V32H179.032V30.956H178.973C178.877 31.1482 178.733 31.3371 178.54 31.5227C178.348 31.7083 178.101 31.8625 177.8 31.9851C177.498 32.1077 177.137 32.169 176.716 32.169ZM177.039 30.9759C177.45 30.9759 177.801 30.8946 178.093 30.7322C178.388 30.5698 178.612 30.3577 178.764 30.0959C178.92 29.8307 178.998 29.5473 178.998 29.2457V28.2614C178.945 28.3144 178.842 28.3641 178.689 28.4105C178.54 28.4536 178.37 28.4917 178.177 28.5249C177.985 28.5547 177.798 28.5829 177.616 28.6094C177.433 28.6326 177.281 28.6525 177.158 28.669C176.87 28.7055 176.606 28.7668 176.368 28.853C176.132 28.9392 175.943 29.0634 175.801 29.2259C175.662 29.3849 175.592 29.5971 175.592 29.8622C175.592 30.2301 175.728 30.5085 176 30.6974C176.272 30.883 176.618 30.9759 177.039 30.9759ZM186.029 24.3636V25.5568H181.858V24.3636H186.029ZM182.976 22.5341H184.463V29.7578C184.463 30.0462 184.506 30.2633 184.592 30.4091C184.678 30.5516 184.789 30.6494 184.925 30.7024C185.064 30.7521 185.215 30.777 185.377 30.777C185.497 30.777 185.601 30.7687 185.691 30.7521C185.78 30.7356 185.85 30.7223 185.9 30.7124L186.168 31.9403C186.082 31.9735 185.959 32.0066 185.8 32.0398C185.641 32.0762 185.442 32.0961 185.203 32.0994C184.812 32.1061 184.448 32.0365 184.11 31.8906C183.772 31.7448 183.498 31.5194 183.289 31.2145C183.081 30.9096 182.976 30.5268 182.976 30.0661V22.5341ZM190.882 32.1541C190.13 32.1541 189.482 31.9934 188.938 31.6719C188.398 31.3471 187.981 30.8913 187.686 30.3047C187.394 29.7147 187.248 29.0237 187.248 28.2315C187.248 27.4493 187.394 26.7599 187.686 26.1634C187.981 25.5668 188.392 25.1011 188.919 24.7663C189.449 24.4316 190.069 24.2642 190.778 24.2642C191.209 24.2642 191.626 24.3355 192.031 24.478C192.435 24.6205 192.798 24.8442 193.119 25.1491C193.441 25.4541 193.695 25.8501 193.88 26.3374C194.066 26.8213 194.159 27.4096 194.159 28.1023V28.6293H188.088V27.5156H192.702C192.702 27.1245 192.622 26.7782 192.463 26.4766C192.304 26.1716 192.08 25.9313 191.792 25.7557C191.507 25.58 191.172 25.4922 190.788 25.4922C190.37 25.4922 190.006 25.5949 189.694 25.8004C189.386 26.0026 189.147 26.2678 188.978 26.5959C188.812 26.9207 188.73 27.2737 188.73 27.6548V28.5249C188.73 29.0353 188.819 29.4695 188.998 29.8274C189.18 30.1854 189.434 30.4588 189.759 30.6477C190.084 30.8333 190.463 30.9261 190.897 30.9261C191.179 30.9261 191.436 30.8864 191.668 30.8068C191.9 30.724 192.1 30.6013 192.269 30.4389C192.438 30.2765 192.568 30.076 192.657 29.8374L194.064 30.0909C193.951 30.5052 193.749 30.8681 193.458 31.1797C193.169 31.4879 192.806 31.7282 192.369 31.9006C191.935 32.0696 191.439 32.1541 190.882 32.1541Z" fill="#9DA1AE"/>
<rect y="55" width="400" height="1" fill="#24262B"/>
<path d="M21.5 86.125C21.5 82.5449 24.3945 79.625 28 79.625C31.5801 79.625 34.5 82.5449 34.5 86.125C34.5 89.7305 31.5801 92.625 28 92.625C24.3945 92.625 21.5 89.7305 21.5 86.125ZM28 91.4062C30.8945 91.4062 33.2812 89.0449 33.2812 86.125C33.2812 83.2305 30.8945 80.8438 28 80.8438C25.0801 80.8438 22.7188 83.2305 22.7188 86.125C22.7188 89.0449 25.0801 91.4062 28 91.4062ZM31.9102 86.125L31.4785 84.8301C31.3516 84.4238 31.5547 83.9922 31.9609 83.8145L33.2812 83.2812L33.6875 86.9375L32.4941 86.6582C32.2148 86.582 31.9863 86.3789 31.9102 86.125ZM23.2012 84.957L22.7188 84.0938L23.125 82.875L25.1562 80.8438L27.7969 80.0312L28.3047 80.9707C28.4824 81.2754 28.457 81.6309 28.2285 81.9102L27.8223 82.3672C27.5684 82.6719 27.5684 83.1035 27.8223 83.4082L28.1523 83.8145C28.3047 83.9922 28.3047 84.2207 28.2031 84.3984C28.0762 84.5762 27.8477 84.6777 27.6445 84.6016L27.0352 84.3984C26.8574 84.3477 26.6797 84.3477 26.502 84.4492L26.3496 84.5254C26.1211 84.627 26.0195 84.9062 26.0957 85.1348C26.1465 85.2617 26.2227 85.3633 26.3242 85.4141L27.2129 85.9219C27.4414 86.0742 27.7207 86.125 28 86.125H29.1172C29.4219 86.125 29.752 86.2773 29.9805 86.5059L30.0566 86.582C30.2852 86.8105 30.4375 87.1406 30.4375 87.4453V87.6738C30.4375 88.1055 30.1836 88.5117 29.8027 88.7148L29.5742 88.8672C29.2188 89.0703 28.9395 89.4004 28.8125 89.832L28.7871 89.959C28.6602 90.3652 28.3555 90.6699 27.9492 90.7969C27.5684 90.8984 27.1621 90.6191 27.1621 90.2129V89.4258C27.1621 89.1465 27.0098 88.8926 26.7559 88.7656C26.5273 88.6641 26.3496 88.4102 26.3496 88.1309V87.1152C26.3496 86.6582 26.0703 86.252 25.6133 86.125L24.166 85.7188C23.7344 85.5918 23.4043 85.3125 23.2012 84.957Z" fill="#9DA1AE"/>
<path d="M49.1186 92V81.8182H50.6548V90.6776H55.2685V92H49.1186ZM56.9016 92V84.3636H58.3881V92H56.9016ZM57.6523 83.1854C57.3938 83.1854 57.1718 83.0992 56.9862 82.9268C56.8039 82.7512 56.7127 82.5424 56.7127 82.3004C56.7127 82.0552 56.8039 81.8464 56.9862 81.674C57.1718 81.4983 57.3938 81.4105 57.6523 81.4105C57.9109 81.4105 58.1313 81.4983 58.3136 81.674C58.4992 81.8464 58.592 82.0552 58.592 82.3004C58.592 82.5424 58.4992 82.7512 58.3136 82.9268C58.1313 83.0992 57.9109 83.1854 57.6523 83.1854ZM61.8745 87.4659V92H60.388V84.3636H61.8148V85.6065H61.9093C62.0849 85.2022 62.36 84.8774 62.7346 84.6321C63.1124 84.3868 63.588 84.2642 64.1614 84.2642C64.6818 84.2642 65.1375 84.3736 65.5286 84.5923C65.9197 84.8078 66.223 85.1293 66.4384 85.5568C66.6538 85.9844 66.7615 86.513 66.7615 87.1428V92H65.275V87.3217C65.275 86.7682 65.1309 86.3357 64.8425 86.0241C64.5542 85.7093 64.1581 85.5518 63.6543 85.5518C63.3096 85.5518 63.003 85.6264 62.7346 85.7756C62.4694 85.9247 62.2589 86.1435 62.1032 86.4318C61.9507 86.7169 61.8745 87.0616 61.8745 87.4659ZM70.1223 89.4098L70.1124 87.5952H70.3709L73.4135 84.3636H75.1934L71.7232 88.0426H71.4895L70.1223 89.4098ZM68.7551 92V81.8182H70.2417V92H68.7551ZM73.5776 92L70.8432 88.3707L71.8674 87.3317L75.4022 92H73.5776ZM85.9755 86.228L84.6282 86.4666C84.5719 86.2943 84.4824 86.1302 84.3597 85.9744C84.2404 85.8187 84.078 85.6911 83.8725 85.5916C83.667 85.4922 83.4102 85.4425 83.1019 85.4425C82.681 85.4425 82.3297 85.5369 82.0479 85.7259C81.7662 85.9115 81.6254 86.1518 81.6254 86.4467C81.6254 86.7019 81.7198 86.9074 81.9087 87.0632C82.0977 87.219 82.4026 87.3466 82.8235 87.446L84.0366 87.7244C84.7392 87.8868 85.2629 88.1371 85.6076 88.4751C85.9523 88.8132 86.1246 89.2524 86.1246 89.7926C86.1246 90.25 85.9921 90.6577 85.7269 91.0156C85.4651 91.3703 85.0988 91.6487 84.6282 91.8509C84.1609 92.053 83.619 92.1541 83.0025 92.1541C82.1474 92.1541 81.4497 91.9718 80.9094 91.6072C80.3692 91.2393 80.0378 90.7173 79.9151 90.0412L81.3519 89.8224C81.4414 90.197 81.6254 90.4804 81.9038 90.6726C82.1822 90.8615 82.5451 90.956 82.9925 90.956C83.4798 90.956 83.8692 90.8549 84.1609 90.6527C84.4525 90.4472 84.5984 90.197 84.5984 89.902C84.5984 89.6634 84.5089 89.4628 84.3299 89.3004C84.1542 89.138 83.8841 89.0154 83.5195 88.9325L82.2269 88.6491C81.5143 88.4867 80.9873 88.2282 80.646 87.8736C80.3079 87.5189 80.1388 87.0698 80.1388 86.5263C80.1388 86.0755 80.2648 85.6811 80.5167 85.343C80.7686 85.005 81.1166 84.7415 81.5607 84.5526C82.0049 84.3603 82.5136 84.2642 83.087 84.2642C83.9123 84.2642 84.5619 84.4432 85.0359 84.8011C85.5098 85.1558 85.823 85.6314 85.9755 86.228ZM89.2456 87.4659V92H87.7591V81.8182H89.2257V85.6065H89.3201C89.4991 85.1955 89.7725 84.8691 90.1404 84.6271C90.5083 84.3852 90.9889 84.2642 91.5822 84.2642C92.1059 84.2642 92.5633 84.3719 92.9544 84.5874C93.3488 84.8028 93.6537 85.1243 93.8691 85.5518C94.0879 85.9761 94.1973 86.5064 94.1973 87.1428V92H92.7108V87.3217C92.7108 86.7616 92.5666 86.3274 92.2782 86.0192C91.9899 85.7076 91.5888 85.5518 91.0751 85.5518C90.7238 85.5518 90.4089 85.6264 90.1305 85.7756C89.8554 85.9247 89.6383 86.1435 89.4792 86.4318C89.3234 86.7169 89.2456 87.0616 89.2456 87.4659ZM98.4032 92.169C97.9193 92.169 97.4818 92.0795 97.0907 91.9006C96.6996 91.7183 96.3897 91.4548 96.161 91.1101C95.9357 90.7654 95.823 90.3428 95.823 89.8423C95.823 89.4115 95.9058 89.0568 96.0716 88.7784C96.2373 88.5 96.461 88.2796 96.7427 88.1172C97.0244 87.9548 97.3393 87.8321 97.6873 87.7493C98.0353 87.6664 98.39 87.6035 98.7512 87.5604C99.2086 87.5073 99.5798 87.4643 99.8649 87.4311C100.15 87.3946 100.357 87.3366 100.486 87.2571C100.616 87.1776 100.68 87.0483 100.68 86.8693V86.8345C100.68 86.4003 100.558 86.0639 100.312 85.8253C100.07 85.5866 99.7091 85.4673 99.2285 85.4673C98.728 85.4673 98.3336 85.5784 98.0453 85.8004C97.7602 86.0192 97.563 86.2628 97.4537 86.5312L96.0566 86.2131C96.2224 85.7491 96.4643 85.3745 96.7825 85.0895C97.104 84.8011 97.4735 84.5923 97.8912 84.4631C98.3088 84.3305 98.7479 84.2642 99.2086 84.2642C99.5136 84.2642 99.8367 84.3007 100.178 84.3736C100.523 84.4432 100.844 84.5724 101.143 84.7614C101.444 84.9503 101.691 85.2204 101.883 85.5717C102.076 85.9197 102.172 86.3722 102.172 86.929V92H100.72V90.956H100.66C100.564 91.1482 100.42 91.3371 100.228 91.5227C100.036 91.7083 99.7886 91.8625 99.487 91.9851C99.1854 92.1077 98.8242 92.169 98.4032 92.169ZM98.7264 90.9759C99.1374 90.9759 99.4887 90.8946 99.7804 90.7322C100.075 90.5698 100.299 90.3577 100.452 90.0959C100.607 89.8307 100.685 89.5473 100.685 89.2457V88.2614C100.632 88.3144 100.529 88.3641 100.377 88.4105C100.228 88.4536 100.057 88.4917 99.8649 88.5249C99.6726 88.5547 99.4854 88.5829 99.3031 88.6094C99.1208 88.6326 98.9683 88.6525 98.8457 88.669C98.5574 88.7055 98.2939 88.7668 98.0552 88.853C97.8199 88.9392 97.631 89.0634 97.4885 89.2259C97.3493 89.3849 97.2797 89.5971 97.2797 89.8622C97.2797 90.2301 97.4155 90.5085 97.6873 90.6974C97.9591 90.883 98.3055 90.9759 98.7264 90.9759ZM104.152 92V84.3636H105.588V85.5767H105.668C105.807 85.1657 106.052 84.8426 106.404 84.6072C106.758 84.3686 107.159 84.2493 107.607 84.2493C107.7 84.2493 107.809 84.2526 107.935 84.2592C108.064 84.2659 108.165 84.2741 108.238 84.2841V85.706C108.179 85.6894 108.073 85.6712 107.92 85.6513C107.768 85.6281 107.615 85.6165 107.463 85.6165C107.111 85.6165 106.798 85.6911 106.523 85.8402C106.251 85.986 106.036 86.1899 105.877 86.4517C105.718 86.7102 105.638 87.0052 105.638 87.3366V92H104.152ZM109.525 92V84.3636H111.011V92H109.525ZM110.275 83.1854C110.017 83.1854 109.795 83.0992 109.609 82.9268C109.427 82.7512 109.336 82.5424 109.336 82.3004C109.336 82.0552 109.427 81.8464 109.609 81.674C109.795 81.4983 110.017 81.4105 110.275 81.4105C110.534 81.4105 110.754 81.4983 110.937 81.674C111.122 81.8464 111.215 82.0552 111.215 82.3004C111.215 82.5424 111.122 82.7512 110.937 82.9268C110.754 83.0992 110.534 83.1854 110.275 83.1854ZM114.498 87.4659V92H113.011V84.3636H114.438V85.6065H114.532C114.708 85.2022 114.983 84.8774 115.358 84.6321C115.735 84.3868 116.211 84.2642 116.784 84.2642C117.305 84.2642 117.761 84.3736 118.152 84.5923C118.543 84.8078 118.846 85.1293 119.061 85.5568C119.277 85.9844 119.385 86.513 119.385 87.1428V92H117.898V87.3217C117.898 86.7682 117.754 86.3357 117.466 86.0241C117.177 85.7093 116.781 85.5518 116.277 85.5518C115.933 85.5518 115.626 85.6264 115.358 85.7756C115.092 85.9247 114.882 86.1435 114.726 86.4318C114.574 86.7169 114.498 87.0616 114.498 87.4659ZM124.58 95.0227C123.973 95.0227 123.451 94.9432 123.014 94.7841C122.58 94.625 122.225 94.4145 121.95 94.1527C121.675 93.8909 121.469 93.6042 121.333 93.2926L122.611 92.7656C122.701 92.9115 122.82 93.0656 122.969 93.228C123.122 93.3937 123.327 93.5346 123.586 93.6506C123.847 93.7666 124.184 93.8246 124.595 93.8246C125.158 93.8246 125.624 93.687 125.992 93.4119C126.36 93.1402 126.544 92.706 126.544 92.1094V90.608H126.449C126.36 90.7704 126.23 90.951 126.061 91.1499C125.896 91.3487 125.667 91.5211 125.375 91.6669C125.084 91.8127 124.704 91.8857 124.237 91.8857C123.634 91.8857 123.09 91.7448 122.606 91.4631C122.126 91.178 121.744 90.7588 121.463 90.2053C121.184 89.6484 121.045 88.964 121.045 88.152C121.045 87.34 121.183 86.6439 121.458 86.0639C121.736 85.4839 122.117 85.0398 122.601 84.7315C123.085 84.42 123.634 84.2642 124.247 84.2642C124.721 84.2642 125.104 84.3438 125.395 84.5028C125.687 84.6586 125.914 84.8409 126.076 85.0497C126.242 85.2585 126.37 85.4425 126.459 85.6016H126.569V84.3636H128.025V92.169C128.025 92.8253 127.873 93.3639 127.568 93.7848C127.263 94.2057 126.85 94.5173 126.33 94.7195C125.813 94.9216 125.23 95.0227 124.58 95.0227ZM124.565 90.6527C124.993 90.6527 125.354 90.5533 125.649 90.3544C125.947 90.1522 126.172 89.8639 126.325 89.4893C126.481 89.1115 126.559 88.6591 126.559 88.1321C126.559 87.6184 126.482 87.166 126.33 86.7749C126.177 86.3838 125.954 86.0788 125.659 85.8601C125.364 85.638 124.999 85.527 124.565 85.527C124.118 85.527 123.745 85.643 123.446 85.875C123.148 86.1037 122.923 86.4152 122.77 86.8097C122.621 87.2041 122.547 87.6449 122.547 88.1321C122.547 88.6326 122.623 89.0717 122.775 89.4496C122.928 89.8274 123.153 90.1224 123.451 90.3345C123.753 90.5466 124.124 90.6527 124.565 90.6527Z" fill="#E3E4E8"/>
<path d="M49.6506 117H48.358L52.0966 106.818H53.3693L57.108 117H55.8153L52.7727 108.429H52.6932L49.6506 117ZM50.1278 113.023H55.3381V114.116H50.1278V113.023ZM59.7081 112.406V117H58.5348V109.364H59.6683V110.557H59.7678C59.9467 110.169 60.2185 109.857 60.5831 109.622C60.9477 109.384 61.4183 109.264 61.995 109.264C62.5121 109.264 62.9645 109.37 63.3523 109.582C63.7401 109.791 64.0417 110.109 64.2571 110.537C64.4725 110.961 64.5803 111.498 64.5803 112.148V117H63.407V112.227C63.407 111.627 63.2512 111.16 62.9396 110.825C62.6281 110.487 62.2005 110.318 61.657 110.318C61.2824 110.318 60.9477 110.399 60.6527 110.562C60.361 110.724 60.1307 110.961 59.9616 111.273C59.7926 111.584 59.7081 111.962 59.7081 112.406ZM67.2065 119.864C67.0076 119.864 66.8303 119.847 66.6745 119.814C66.5188 119.784 66.411 119.754 66.3514 119.724L66.6497 118.69C66.9347 118.763 67.1866 118.79 67.4054 118.77C67.6241 118.75 67.818 118.652 67.987 118.477C68.1594 118.304 68.3168 118.024 68.4593 117.636L68.6781 117.04L65.8542 109.364H67.127L69.2349 115.449H69.3145L71.4224 109.364H72.6951L69.4537 118.114C69.3078 118.508 69.1272 118.835 68.9118 119.093C68.6963 119.355 68.4461 119.549 68.161 119.675C67.8793 119.801 67.5611 119.864 67.2065 119.864ZM77.0726 117.159C76.3832 117.159 75.7784 116.995 75.258 116.667C74.7409 116.339 74.3366 115.88 74.0449 115.29C73.7566 114.7 73.6124 114.01 73.6124 113.222C73.6124 112.426 73.7566 111.732 74.0449 111.138C74.3366 110.545 74.7409 110.085 75.258 109.756C75.7784 109.428 76.3832 109.264 77.0726 109.264C77.762 109.264 78.3652 109.428 78.8823 109.756C79.4026 110.085 79.807 110.545 80.0953 111.138C80.387 111.732 80.5328 112.426 80.5328 113.222C80.5328 114.01 80.387 114.7 80.0953 115.29C79.807 115.88 79.4026 116.339 78.8823 116.667C78.3652 116.995 77.762 117.159 77.0726 117.159ZM77.0726 116.105C77.5963 116.105 78.0272 115.971 78.3652 115.702C78.7033 115.434 78.9535 115.081 79.1159 114.643C79.2784 114.206 79.3596 113.732 79.3596 113.222C79.3596 112.711 79.2784 112.236 79.1159 111.795C78.9535 111.354 78.7033 110.998 78.3652 110.726C78.0272 110.454 77.5963 110.318 77.0726 110.318C76.5489 110.318 76.1181 110.454 75.78 110.726C75.4419 110.998 75.1917 111.354 75.0293 111.795C74.8669 112.236 74.7857 112.711 74.7857 113.222C74.7857 113.732 74.8669 114.206 75.0293 114.643C75.1917 115.081 75.4419 115.434 75.78 115.702C76.1181 115.971 76.5489 116.105 77.0726 116.105ZM83.4972 112.406V117H82.3239V109.364H83.4574V110.557H83.5568C83.7358 110.169 84.0076 109.857 84.3722 109.622C84.7367 109.384 85.2074 109.264 85.7841 109.264C86.3011 109.264 86.7536 109.37 87.1413 109.582C87.5291 109.791 87.8307 110.109 88.0462 110.537C88.2616 110.961 88.3693 111.498 88.3693 112.148V117H87.196V112.227C87.196 111.627 87.0402 111.16 86.7287 110.825C86.4171 110.487 85.9896 110.318 85.446 110.318C85.0715 110.318 84.7367 110.399 84.4418 110.562C84.1501 110.724 83.9197 110.961 83.7507 111.273C83.5817 111.584 83.4972 111.962 83.4972 112.406ZM93.715 117.159C92.9792 117.159 92.3445 116.997 91.8109 116.672C91.2806 116.344 90.8713 115.886 90.5829 115.3C90.2979 114.71 90.1554 114.024 90.1554 113.241C90.1554 112.459 90.2979 111.77 90.5829 111.173C90.8713 110.573 91.2723 110.106 91.786 109.771C92.3031 109.433 92.9063 109.264 93.5957 109.264C93.9934 109.264 94.3862 109.33 94.774 109.463C95.1618 109.596 95.5147 109.811 95.8329 110.109C96.1511 110.404 96.4047 110.795 96.5936 111.283C96.7825 111.77 96.877 112.37 96.877 113.082V113.58H90.9906V112.565H95.6838C95.6838 112.134 95.5976 111.75 95.4252 111.412C95.2562 111.074 95.0143 110.807 94.6994 110.612C94.3878 110.416 94.0199 110.318 93.5957 110.318C93.1284 110.318 92.724 110.434 92.3826 110.666C92.0446 110.895 91.7844 111.193 91.6021 111.561C91.4198 111.929 91.3287 112.323 91.3287 112.744V113.42C91.3287 113.997 91.4281 114.486 91.627 114.887C91.8291 115.285 92.1092 115.588 92.4672 115.797C92.8251 116.002 93.2411 116.105 93.715 116.105C94.0233 116.105 94.3017 116.062 94.5502 115.976C94.8021 115.886 95.0192 115.754 95.2015 115.578C95.3838 115.399 95.5247 115.177 95.6241 114.912L96.7576 115.23C96.6383 115.615 96.4378 115.953 96.1561 116.244C95.8743 116.533 95.5263 116.758 95.112 116.92C94.6977 117.08 94.2321 117.159 93.715 117.159ZM104.329 117L102.003 109.364H103.236L104.886 115.21H104.966L106.596 109.364H107.849L109.46 115.19H109.54L111.19 109.364H112.423L110.096 117H108.943L107.273 111.134H107.153L105.483 117H104.329ZM113.974 117V109.364H115.148V117H113.974ZM114.571 108.091C114.342 108.091 114.145 108.013 113.979 107.857C113.817 107.701 113.736 107.514 113.736 107.295C113.736 107.077 113.817 106.889 113.979 106.734C114.145 106.578 114.342 106.5 114.571 106.5C114.8 106.5 114.995 106.578 115.157 106.734C115.323 106.889 115.406 107.077 115.406 107.295C115.406 107.514 115.323 107.701 115.157 107.857C114.995 108.013 114.8 108.091 114.571 108.091ZM120.618 109.364V110.358H116.66V109.364H120.618ZM117.814 107.534H118.987V114.812C118.987 115.144 119.035 115.393 119.131 115.558C119.23 115.721 119.356 115.83 119.509 115.886C119.665 115.939 119.829 115.966 120.001 115.966C120.13 115.966 120.236 115.959 120.319 115.946C120.402 115.929 120.468 115.916 120.518 115.906L120.757 116.96C120.677 116.99 120.566 117.02 120.424 117.05C120.281 117.083 120.1 117.099 119.882 117.099C119.55 117.099 119.225 117.028 118.907 116.886C118.592 116.743 118.331 116.526 118.122 116.234C117.916 115.943 117.814 115.575 117.814 115.131V107.534ZM123.72 112.406V117H122.547V106.818H123.72V110.557H123.819C123.998 110.162 124.267 109.849 124.625 109.617C124.986 109.382 125.467 109.264 126.066 109.264C126.587 109.264 127.042 109.369 127.434 109.577C127.825 109.783 128.128 110.099 128.343 110.527C128.562 110.951 128.672 111.491 128.672 112.148V117H127.498V112.227C127.498 111.621 127.341 111.152 127.026 110.82C126.714 110.486 126.282 110.318 125.728 110.318C125.344 110.318 124.999 110.399 124.694 110.562C124.393 110.724 124.154 110.961 123.978 111.273C123.806 111.584 123.72 111.962 123.72 112.406ZM138.077 109.364V110.358H134.119V109.364H138.077ZM135.273 107.534H136.446V114.812C136.446 115.144 136.494 115.393 136.59 115.558C136.689 115.721 136.815 115.83 136.968 115.886C137.124 115.939 137.288 115.966 137.46 115.966C137.589 115.966 137.695 115.959 137.778 115.946C137.861 115.929 137.927 115.916 137.977 115.906L138.216 116.96C138.136 116.99 138.025 117.02 137.883 117.05C137.74 117.083 137.559 117.099 137.341 117.099C137.009 117.099 136.684 117.028 136.366 116.886C136.051 116.743 135.79 116.526 135.581 116.234C135.375 115.943 135.273 115.575 135.273 115.131V107.534ZM141.179 112.406V117H140.006V106.818H141.179V110.557H141.278C141.457 110.162 141.726 109.849 142.084 109.617C142.445 109.382 142.925 109.264 143.525 109.264C144.046 109.264 144.501 109.369 144.893 109.577C145.284 109.783 145.587 110.099 145.802 110.527C146.021 110.951 146.131 111.491 146.131 112.148V117H144.957V112.227C144.957 111.621 144.8 111.152 144.485 110.82C144.173 110.486 143.741 110.318 143.187 110.318C142.803 110.318 142.458 110.399 142.153 110.562C141.852 110.724 141.613 110.961 141.437 111.273C141.265 111.584 141.179 111.962 141.179 112.406ZM151.479 117.159C150.743 117.159 150.108 116.997 149.575 116.672C149.044 116.344 148.635 115.886 148.347 115.3C148.062 114.71 147.919 114.024 147.919 113.241C147.919 112.459 148.062 111.77 148.347 111.173C148.635 110.573 149.036 110.106 149.55 109.771C150.067 109.433 150.67 109.264 151.359 109.264C151.757 109.264 152.15 109.33 152.538 109.463C152.925 109.596 153.278 109.811 153.597 110.109C153.915 110.404 154.168 110.795 154.357 111.283C154.546 111.77 154.641 112.37 154.641 113.082V113.58H148.754V112.565H153.447C153.447 112.134 153.361 111.75 153.189 111.412C153.02 111.074 152.778 110.807 152.463 110.612C152.152 110.416 151.784 110.318 151.359 110.318C150.892 110.318 150.488 110.434 150.146 110.666C149.808 110.895 149.548 111.193 149.366 111.561C149.183 111.929 149.092 112.323 149.092 112.744V113.42C149.092 113.997 149.192 114.486 149.391 114.887C149.593 115.285 149.873 115.588 150.231 115.797C150.589 116.002 151.005 116.105 151.479 116.105C151.787 116.105 152.065 116.062 152.314 115.976C152.566 115.886 152.783 115.754 152.965 115.578C153.147 115.399 153.288 115.177 153.388 114.912L154.521 115.23C154.402 115.615 154.201 115.953 153.92 116.244C153.638 116.533 153.29 116.758 152.876 116.92C152.461 117.08 151.996 117.159 151.479 117.159ZM161.536 106.818V117H160.363V106.818H161.536ZM163.685 117V109.364H164.858V117H163.685ZM164.282 108.091C164.053 108.091 163.856 108.013 163.69 107.857C163.528 107.701 163.447 107.514 163.447 107.295C163.447 107.077 163.528 106.889 163.69 106.734C163.856 106.578 164.053 106.5 164.282 106.5C164.51 106.5 164.706 106.578 164.868 106.734C165.034 106.889 165.117 107.077 165.117 107.295C165.117 107.514 165.034 107.701 164.868 107.857C164.706 108.013 164.51 108.091 164.282 108.091ZM168.181 112.406V117H167.007V109.364H168.141V110.557H168.24C168.419 110.169 168.691 109.857 169.056 109.622C169.42 109.384 169.891 109.264 170.468 109.264C170.985 109.264 171.437 109.37 171.825 109.582C172.213 109.791 172.514 110.109 172.73 110.537C172.945 110.961 173.053 111.498 173.053 112.148V117H171.88V112.227C171.88 111.627 171.724 111.16 171.412 110.825C171.101 110.487 170.673 110.318 170.13 110.318C169.755 110.318 169.42 110.399 169.125 110.562C168.834 110.724 168.603 110.961 168.434 111.273C168.265 111.584 168.181 111.962 168.181 112.406ZM176.291 114.216L176.271 112.764H176.509L179.85 109.364H181.302L177.742 112.963H177.643L176.291 114.216ZM175.197 117V106.818H176.37V117H175.197ZM180.049 117L177.066 113.222L177.901 112.406L181.541 117H180.049ZM189.852 117.159C189.136 117.159 188.52 116.99 188.002 116.652C187.485 116.314 187.088 115.848 186.809 115.255C186.531 114.662 186.392 113.984 186.392 113.222C186.392 112.446 186.534 111.762 186.819 111.168C187.108 110.572 187.509 110.106 188.022 109.771C188.539 109.433 189.143 109.264 189.832 109.264C190.369 109.264 190.853 109.364 191.284 109.562C191.715 109.761 192.068 110.04 192.343 110.398C192.618 110.756 192.788 111.173 192.855 111.651H191.681C191.592 111.303 191.393 110.994 191.085 110.726C190.78 110.454 190.369 110.318 189.852 110.318C189.395 110.318 188.993 110.437 188.649 110.676C188.307 110.911 188.041 111.245 187.848 111.675C187.659 112.103 187.565 112.605 187.565 113.182C187.565 113.772 187.658 114.286 187.843 114.723C188.032 115.161 188.297 115.5 188.639 115.742C188.984 115.984 189.388 116.105 189.852 116.105C190.157 116.105 190.434 116.052 190.682 115.946C190.931 115.84 191.141 115.688 191.314 115.489C191.486 115.29 191.609 115.051 191.681 114.773H192.855C192.788 115.223 192.624 115.629 192.363 115.991C192.104 116.349 191.761 116.634 191.333 116.846C190.909 117.055 190.415 117.159 189.852 117.159ZM196.817 117.179C196.333 117.179 195.894 117.088 195.5 116.906C195.105 116.72 194.792 116.453 194.56 116.105C194.328 115.754 194.212 115.33 194.212 114.832C194.212 114.395 194.298 114.04 194.471 113.768C194.643 113.493 194.873 113.278 195.162 113.122C195.45 112.966 195.768 112.85 196.116 112.774C196.467 112.695 196.82 112.632 197.175 112.585C197.639 112.526 198.015 112.481 198.304 112.451C198.595 112.418 198.807 112.363 198.94 112.287C199.076 112.211 199.144 112.078 199.144 111.889V111.849C199.144 111.359 199.01 110.978 198.741 110.706C198.476 110.434 198.073 110.298 197.533 110.298C196.973 110.298 196.534 110.421 196.216 110.666C195.897 110.911 195.674 111.173 195.544 111.452L194.431 111.054C194.63 110.59 194.895 110.229 195.226 109.97C195.561 109.708 195.926 109.526 196.32 109.423C196.718 109.317 197.109 109.264 197.493 109.264C197.739 109.264 198.02 109.294 198.338 109.354C198.66 109.41 198.97 109.528 199.268 109.707C199.57 109.886 199.82 110.156 200.019 110.517C200.218 110.878 200.317 111.362 200.317 111.969V117H199.144V115.966H199.084C199.005 116.132 198.872 116.309 198.686 116.498C198.501 116.687 198.254 116.848 197.946 116.98C197.637 117.113 197.261 117.179 196.817 117.179ZM196.996 116.125C197.46 116.125 197.851 116.034 198.169 115.852C198.491 115.669 198.733 115.434 198.895 115.146C199.061 114.857 199.144 114.554 199.144 114.236V113.162C199.094 113.222 198.985 113.276 198.816 113.326C198.65 113.372 198.458 113.414 198.239 113.45C198.024 113.483 197.813 113.513 197.608 113.54C197.405 113.563 197.241 113.583 197.115 113.599C196.81 113.639 196.525 113.704 196.26 113.793C195.998 113.879 195.786 114.01 195.624 114.186C195.465 114.358 195.385 114.594 195.385 114.892C195.385 115.3 195.536 115.608 195.838 115.817C196.143 116.022 196.529 116.125 196.996 116.125ZM203.632 112.406V117H202.459V109.364H203.592V110.557H203.692C203.871 110.169 204.142 109.857 204.507 109.622C204.872 109.384 205.342 109.264 205.919 109.264C206.436 109.264 206.888 109.37 207.276 109.582C207.664 109.791 207.965 110.109 208.181 110.537C208.396 110.961 208.504 111.498 208.504 112.148V117H207.331V112.227C207.331 111.627 207.175 111.16 206.863 110.825C206.552 110.487 206.124 110.318 205.581 110.318C205.206 110.318 204.872 110.399 204.577 110.562C204.285 110.724 204.055 110.961 203.885 111.273C203.716 111.584 203.632 111.962 203.632 112.406ZM220.83 109.364L218.006 117H216.813L213.989 109.364H215.262L217.37 115.449H217.449L219.557 109.364H220.83ZM222.379 117V109.364H223.552V117H222.379ZM222.975 108.091C222.746 108.091 222.549 108.013 222.384 107.857C222.221 107.701 222.14 107.514 222.14 107.295C222.14 107.077 222.221 106.889 222.384 106.734C222.549 106.578 222.746 106.5 222.975 106.5C223.204 106.5 223.399 106.578 223.562 106.734C223.728 106.889 223.81 107.077 223.81 107.295C223.81 107.514 223.728 107.701 223.562 107.857C223.399 108.013 223.204 108.091 222.975 108.091ZM228.903 117.159C228.167 117.159 227.532 116.997 226.998 116.672C226.468 116.344 226.059 115.886 225.77 115.3C225.485 114.71 225.343 114.024 225.343 113.241C225.343 112.459 225.485 111.77 225.77 111.173C226.059 110.573 226.46 110.106 226.974 109.771C227.491 109.433 228.094 109.264 228.783 109.264C229.181 109.264 229.574 109.33 229.961 109.463C230.349 109.596 230.702 109.811 231.02 110.109C231.339 110.404 231.592 110.795 231.781 111.283C231.97 111.77 232.064 112.37 232.064 113.082V113.58H226.178V112.565H230.871C230.871 112.134 230.785 111.75 230.613 111.412C230.444 111.074 230.202 110.807 229.887 110.612C229.575 110.416 229.207 110.318 228.783 110.318C228.316 110.318 227.912 110.434 227.57 110.666C227.232 110.895 226.972 111.193 226.79 111.561C226.607 111.929 226.516 112.323 226.516 112.744V113.42C226.516 113.997 226.616 114.486 226.814 114.887C227.017 115.285 227.297 115.588 227.655 115.797C228.013 116.002 228.429 116.105 228.903 116.105C229.211 116.105 229.489 116.062 229.738 115.976C229.99 115.886 230.207 115.754 230.389 115.578C230.571 115.399 230.712 115.177 230.812 114.912L231.945 115.23C231.826 115.615 231.625 115.953 231.344 116.244C231.062 116.533 230.714 116.758 230.3 116.92C229.885 117.08 229.42 117.159 228.903 117.159ZM235.579 117L233.253 109.364H234.486L236.136 115.21H236.216L237.846 109.364H239.099L240.71 115.19H240.79L242.44 109.364H243.673L241.346 117H240.193L238.523 111.134H238.403L236.733 117H235.579ZM251.409 117.179C250.925 117.179 250.486 117.088 250.091 116.906C249.697 116.72 249.384 116.453 249.152 116.105C248.92 115.754 248.804 115.33 248.804 114.832C248.804 114.395 248.89 114.04 249.062 113.768C249.235 113.493 249.465 113.278 249.753 113.122C250.042 112.966 250.36 112.85 250.708 112.774C251.059 112.695 251.412 112.632 251.767 112.585C252.231 112.526 252.607 112.481 252.895 112.451C253.187 112.418 253.399 112.363 253.532 112.287C253.668 112.211 253.736 112.078 253.736 111.889V111.849C253.736 111.359 253.601 110.978 253.333 110.706C253.068 110.434 252.665 110.298 252.125 110.298C251.565 110.298 251.126 110.421 250.807 110.666C250.489 110.911 250.265 111.173 250.136 111.452L249.023 111.054C249.221 110.59 249.487 110.229 249.818 109.97C250.153 109.708 250.517 109.526 250.912 109.423C251.309 109.317 251.701 109.264 252.085 109.264C252.33 109.264 252.612 109.294 252.93 109.354C253.252 109.41 253.562 109.528 253.86 109.707C254.162 109.886 254.412 110.156 254.611 110.517C254.809 110.878 254.909 111.362 254.909 111.969V117H253.736V115.966H253.676C253.596 116.132 253.464 116.309 253.278 116.498C253.093 116.687 252.846 116.848 252.537 116.98C252.229 117.113 251.853 117.179 251.409 117.179ZM251.588 116.125C252.052 116.125 252.443 116.034 252.761 115.852C253.083 115.669 253.325 115.434 253.487 115.146C253.653 114.857 253.736 114.554 253.736 114.236V113.162C253.686 113.222 253.577 113.276 253.407 113.326C253.242 113.372 253.05 113.414 252.831 113.45C252.615 113.483 252.405 113.513 252.199 113.54C251.997 113.563 251.833 113.583 251.707 113.599C251.402 113.639 251.117 113.704 250.852 113.793C250.59 113.879 250.378 114.01 250.216 114.186C250.057 114.358 249.977 114.594 249.977 114.892C249.977 115.3 250.128 115.608 250.43 115.817C250.734 116.022 251.121 116.125 251.588 116.125ZM258.224 112.406V117H257.05V109.364H258.184V110.557H258.283C258.462 110.169 258.734 109.857 259.099 109.622C259.463 109.384 259.934 109.264 260.511 109.264C261.028 109.264 261.48 109.37 261.868 109.582C262.256 109.791 262.557 110.109 262.773 110.537C262.988 110.961 263.096 111.498 263.096 112.148V117H261.923V112.227C261.923 111.627 261.767 111.16 261.455 110.825C261.144 110.487 260.716 110.318 260.173 110.318C259.798 110.318 259.463 110.399 259.168 110.562C258.877 110.724 258.646 110.961 258.477 111.273C258.308 111.584 258.224 111.962 258.224 112.406ZM268.123 117.159C267.487 117.159 266.925 116.998 266.438 116.677C265.951 116.352 265.57 115.895 265.295 115.305C265.019 114.711 264.882 114.01 264.882 113.202C264.882 112.4 265.019 111.704 265.295 111.114C265.57 110.524 265.952 110.068 266.443 109.746C266.934 109.425 267.5 109.264 268.143 109.264C268.64 109.264 269.033 109.347 269.322 109.513C269.613 109.675 269.835 109.861 269.988 110.07C270.144 110.275 270.265 110.444 270.351 110.577H270.45V106.818H271.623V117H270.49V115.827H270.351C270.265 115.966 270.142 116.142 269.983 116.354C269.824 116.562 269.597 116.75 269.302 116.915C269.007 117.078 268.614 117.159 268.123 117.159ZM268.282 116.105C268.753 116.105 269.151 115.982 269.476 115.737C269.8 115.489 270.047 115.146 270.216 114.708C270.385 114.267 270.47 113.759 270.47 113.182C270.47 112.612 270.387 112.113 270.221 111.685C270.056 111.254 269.81 110.92 269.486 110.681C269.161 110.439 268.76 110.318 268.282 110.318C267.785 110.318 267.371 110.446 267.04 110.701C266.711 110.953 266.465 111.296 266.299 111.73C266.136 112.161 266.055 112.645 266.055 113.182C266.055 113.725 266.138 114.219 266.304 114.663C266.473 115.104 266.721 115.455 267.05 115.717C267.381 115.976 267.792 116.105 268.282 116.105ZM281.273 109.364V110.358H277.157V109.364H281.273ZM278.39 117V108.31C278.39 107.872 278.492 107.508 278.698 107.216C278.903 106.924 279.17 106.705 279.498 106.56C279.827 106.414 280.173 106.341 280.537 106.341C280.826 106.341 281.061 106.364 281.243 106.411C281.426 106.457 281.562 106.5 281.651 106.54L281.313 107.554C281.253 107.534 281.171 107.509 281.064 107.479C280.962 107.45 280.826 107.435 280.657 107.435C280.269 107.435 279.989 107.532 279.817 107.728C279.648 107.924 279.563 108.21 279.563 108.588V117H278.39ZM285.705 117.159C285.016 117.159 284.411 116.995 283.891 116.667C283.374 116.339 282.969 115.88 282.678 115.29C282.389 114.7 282.245 114.01 282.245 113.222C282.245 112.426 282.389 111.732 282.678 111.138C282.969 110.545 283.374 110.085 283.891 109.756C284.411 109.428 285.016 109.264 285.705 109.264C286.395 109.264 286.998 109.428 287.515 109.756C288.035 110.085 288.44 110.545 288.728 111.138C289.02 111.732 289.166 112.426 289.166 113.222C289.166 114.01 289.02 114.7 288.728 115.29C288.44 115.88 288.035 116.339 287.515 116.667C286.998 116.995 286.395 117.159 285.705 117.159ZM285.705 116.105C286.229 116.105 286.66 115.971 286.998 115.702C287.336 115.434 287.586 115.081 287.749 114.643C287.911 114.206 287.992 113.732 287.992 113.222C287.992 112.711 287.911 112.236 287.749 111.795C287.586 111.354 287.336 110.998 286.998 110.726C286.66 110.454 286.229 110.318 285.705 110.318C285.182 110.318 284.751 110.454 284.413 110.726C284.075 110.998 283.825 111.354 283.662 111.795C283.5 112.236 283.419 112.711 283.419 113.222C283.419 113.732 283.5 114.206 283.662 114.643C283.825 115.081 284.075 115.434 284.413 115.702C284.751 115.971 285.182 116.105 285.705 116.105ZM290.957 117V109.364H292.09V110.517H292.17C292.309 110.139 292.561 109.833 292.925 109.597C293.29 109.362 293.701 109.244 294.158 109.244C294.245 109.244 294.352 109.246 294.482 109.249C294.611 109.253 294.709 109.258 294.775 109.264V110.457C294.735 110.447 294.644 110.433 294.501 110.413C294.362 110.389 294.215 110.378 294.059 110.378C293.688 110.378 293.356 110.456 293.065 110.612C292.776 110.764 292.548 110.976 292.379 111.248C292.213 111.516 292.13 111.823 292.13 112.168V117H290.957ZM297.259 114.216L297.24 112.764H297.478L300.819 109.364H302.271L298.711 112.963H298.612L297.259 114.216ZM296.166 117V106.818H297.339V117H296.166ZM301.018 117L298.035 113.222L298.87 112.406L302.509 117H301.018ZM52.3949 130.364V131.358H48.4375V130.364H52.3949ZM49.5909 128.534H50.7642V135.812C50.7642 136.144 50.8123 136.393 50.9084 136.558C51.0078 136.721 51.1338 136.83 51.2862 136.886C51.442 136.939 51.6061 136.966 51.7784 136.966C51.9077 136.966 52.0137 136.959 52.0966 136.946C52.1795 136.929 52.2457 136.916 52.2955 136.906L52.5341 137.96C52.4545 137.99 52.3435 138.02 52.201 138.05C52.0585 138.083 51.8778 138.099 51.6591 138.099C51.3277 138.099 51.0028 138.028 50.6847 137.886C50.3698 137.743 50.108 137.526 49.8991 137.234C49.6937 136.943 49.5909 136.575 49.5909 136.131V128.534ZM55.4972 133.406V138H54.3239V127.818H55.4972V131.557H55.5966C55.7756 131.162 56.044 130.849 56.402 130.617C56.7633 130.382 57.2438 130.264 57.8438 130.264C58.3641 130.264 58.8198 130.369 59.2109 130.577C59.602 130.783 59.9053 131.099 60.1207 131.527C60.3395 131.951 60.4489 132.491 60.4489 133.148V138H59.2756V133.227C59.2756 132.621 59.1181 132.152 58.8033 131.82C58.4917 131.486 58.0592 131.318 57.5057 131.318C57.1212 131.318 56.7765 131.399 56.4716 131.562C56.17 131.724 55.9313 131.961 55.7557 132.273C55.5833 132.584 55.4972 132.962 55.4972 133.406ZM62.5953 138V130.364H63.7686V138H62.5953ZM63.1919 129.091C62.9632 129.091 62.766 129.013 62.6003 128.857C62.4379 128.701 62.3567 128.514 62.3567 128.295C62.3567 128.077 62.4379 127.889 62.6003 127.734C62.766 127.578 62.9632 127.5 63.1919 127.5C63.4206 127.5 63.6162 127.578 63.7786 127.734C63.9443 127.889 64.0272 128.077 64.0272 128.295C64.0272 128.514 63.9443 128.701 63.7786 128.857C63.6162 129.013 63.4206 129.091 63.1919 129.091ZM71.3267 132.074L70.2727 132.372C70.2064 132.196 70.1087 132.026 69.9794 131.86C69.8535 131.691 69.6811 131.552 69.4624 131.442C69.2436 131.333 68.9635 131.278 68.6222 131.278C68.1548 131.278 67.7654 131.386 67.4538 131.602C67.1456 131.814 66.9915 132.084 66.9915 132.412C66.9915 132.704 67.0975 132.934 67.3097 133.103C67.5218 133.272 67.8532 133.413 68.304 133.526L69.4375 133.804C70.1203 133.97 70.629 134.223 70.9638 134.565C71.2985 134.903 71.4659 135.339 71.4659 135.872C71.4659 136.31 71.34 136.701 71.0881 137.045C70.8395 137.39 70.4915 137.662 70.044 137.861C69.5966 138.06 69.0762 138.159 68.483 138.159C67.7041 138.159 67.0594 137.99 66.549 137.652C66.0386 137.314 65.7154 136.82 65.5795 136.17L66.6932 135.892C66.7992 136.303 66.9998 136.611 67.2947 136.817C67.593 137.022 67.9825 137.125 68.4631 137.125C69.0099 137.125 69.4441 137.009 69.7656 136.777C70.0904 136.542 70.2528 136.26 70.2528 135.932C70.2528 135.667 70.16 135.445 69.9744 135.266C69.7888 135.083 69.5038 134.947 69.1193 134.858L67.8466 134.56C67.1473 134.394 66.6335 134.137 66.3054 133.789C65.9806 133.438 65.8182 132.999 65.8182 132.472C65.8182 132.041 65.9392 131.66 66.1811 131.328C66.4264 130.997 66.7595 130.737 67.1804 130.548C67.6046 130.359 68.0852 130.264 68.6222 130.264C69.3778 130.264 69.9711 130.43 70.402 130.761C70.8362 131.093 71.1444 131.53 71.3267 132.074ZM82.5787 132.074L81.5247 132.372C81.4584 132.196 81.3606 132.026 81.2314 131.86C81.1054 131.691 80.9331 131.552 80.7143 131.442C80.4956 131.333 80.2155 131.278 79.8741 131.278C79.4068 131.278 79.0173 131.386 78.7058 131.602C78.3975 131.814 78.2434 132.084 78.2434 132.412C78.2434 132.704 78.3495 132.934 78.5616 133.103C78.7737 133.272 79.1052 133.413 79.5559 133.526L80.6895 133.804C81.3722 133.97 81.881 134.223 82.2157 134.565C82.5505 134.903 82.7179 135.339 82.7179 135.872C82.7179 136.31 82.5919 136.701 82.34 137.045C82.0914 137.39 81.7434 137.662 81.296 137.861C80.8485 138.06 80.3282 138.159 79.7349 138.159C78.956 138.159 78.3114 137.99 77.801 137.652C77.2905 137.314 76.9674 136.82 76.8315 136.17L77.9451 135.892C78.0512 136.303 78.2517 136.611 78.5467 136.817C78.845 137.022 79.2344 137.125 79.715 137.125C80.2619 137.125 80.6961 137.009 81.0176 136.777C81.3424 136.542 81.5048 136.26 81.5048 135.932C81.5048 135.667 81.412 135.445 81.2264 135.266C81.0408 135.083 80.7557 134.947 80.3713 134.858L79.0985 134.56C78.3992 134.394 77.8855 134.137 77.5574 133.789C77.2325 133.438 77.0701 132.999 77.0701 132.472C77.0701 132.041 77.1911 131.66 77.4331 131.328C77.6783 130.997 78.0114 130.737 78.4324 130.548C78.8566 130.359 79.3372 130.264 79.8741 130.264C80.6298 130.264 81.2231 130.43 81.6539 130.761C82.0881 131.093 82.3964 131.53 82.5787 132.074ZM86.7312 138.179C86.2473 138.179 85.8081 138.088 85.4137 137.906C85.0193 137.72 84.7061 137.453 84.4741 137.105C84.2421 136.754 84.1261 136.33 84.1261 135.832C84.1261 135.395 84.2122 135.04 84.3846 134.768C84.5569 134.493 84.7873 134.278 85.0756 134.122C85.364 133.966 85.6822 133.85 86.0302 133.774C86.3815 133.695 86.7345 133.632 87.0891 133.585C87.5531 133.526 87.9293 133.481 88.2177 133.451C88.5094 133.418 88.7215 133.363 88.854 133.287C88.9899 133.211 89.0579 133.078 89.0579 132.889V132.849C89.0579 132.359 88.9237 131.978 88.6552 131.706C88.39 131.434 87.9873 131.298 87.4471 131.298C86.887 131.298 86.4478 131.421 86.1296 131.666C85.8114 131.911 85.5877 132.173 85.4585 132.452L84.3448 132.054C84.5437 131.59 84.8088 131.229 85.1403 130.97C85.475 130.708 85.8396 130.526 86.234 130.423C86.6317 130.317 87.0228 130.264 87.4073 130.264C87.6526 130.264 87.9343 130.294 88.2525 130.354C88.574 130.41 88.8839 130.528 89.1822 130.707C89.4838 130.886 89.734 131.156 89.9329 131.517C90.1317 131.878 90.2312 132.362 90.2312 132.969V138H89.0579V136.966H88.9982C88.9187 137.132 88.7861 137.309 88.6005 137.498C88.4149 137.687 88.168 137.848 87.8597 137.98C87.5515 138.113 87.1753 138.179 86.7312 138.179ZM86.9102 137.125C87.3742 137.125 87.7653 137.034 88.0835 136.852C88.4049 136.669 88.6469 136.434 88.8093 136.146C88.975 135.857 89.0579 135.554 89.0579 135.236V134.162C89.0082 134.222 88.8988 134.276 88.7298 134.326C88.564 134.372 88.3718 134.414 88.1531 134.45C87.9376 134.483 87.7272 134.513 87.5217 134.54C87.3195 134.563 87.1554 134.583 87.0295 134.599C86.7246 134.639 86.4395 134.704 86.1744 134.793C85.9125 134.879 85.7004 135.01 85.538 135.186C85.3789 135.358 85.2994 135.594 85.2994 135.892C85.2994 136.3 85.4502 136.608 85.7518 136.817C86.0567 137.022 86.4428 137.125 86.9102 137.125ZM93.546 133.406V138H92.3727V130.364H93.5062V131.557H93.6056C93.7846 131.169 94.0564 130.857 94.421 130.622C94.7856 130.384 95.2562 130.264 95.8329 130.264C96.35 130.264 96.8024 130.37 97.1902 130.582C97.5779 130.791 97.8796 131.109 98.095 131.537C98.3104 131.961 98.4181 132.498 98.4181 133.148V138H97.2449V133.227C97.2449 132.627 97.0891 132.16 96.7775 131.825C96.466 131.487 96.0384 131.318 95.4949 131.318C95.1203 131.318 94.7856 131.399 94.4906 131.562C94.1989 131.724 93.9686 131.961 93.7995 132.273C93.6305 132.584 93.546 132.962 93.546 133.406ZM103.446 138.159C102.809 138.159 102.248 137.998 101.76 137.677C101.273 137.352 100.892 136.895 100.617 136.305C100.342 135.711 100.204 135.01 100.204 134.202C100.204 133.4 100.342 132.704 100.617 132.114C100.892 131.524 101.275 131.068 101.765 130.746C102.256 130.425 102.823 130.264 103.466 130.264C103.963 130.264 104.355 130.347 104.644 130.513C104.935 130.675 105.158 130.861 105.31 131.07C105.466 131.275 105.587 131.444 105.673 131.577H105.772V127.818H106.946V138H105.812V136.827H105.673C105.587 136.966 105.464 137.142 105.305 137.354C105.146 137.562 104.919 137.75 104.624 137.915C104.329 138.078 103.936 138.159 103.446 138.159ZM103.605 137.105C104.075 137.105 104.473 136.982 104.798 136.737C105.123 136.489 105.37 136.146 105.539 135.708C105.708 135.267 105.792 134.759 105.792 134.182C105.792 133.612 105.709 133.113 105.544 132.685C105.378 132.254 105.133 131.92 104.808 131.681C104.483 131.439 104.082 131.318 103.605 131.318C103.108 131.318 102.693 131.446 102.362 131.701C102.034 131.953 101.787 132.296 101.621 132.73C101.459 133.161 101.377 133.645 101.377 134.182C101.377 134.725 101.46 135.219 101.626 135.663C101.795 136.104 102.044 136.455 102.372 136.717C102.703 136.976 103.114 137.105 103.605 137.105ZM109.417 138V127.818H110.59V131.577H110.689C110.775 131.444 110.895 131.275 111.047 131.07C111.203 130.861 111.425 130.675 111.713 130.513C112.005 130.347 112.4 130.264 112.897 130.264C113.54 130.264 114.106 130.425 114.597 130.746C115.087 131.068 115.47 131.524 115.745 132.114C116.02 132.704 116.158 133.4 116.158 134.202C116.158 135.01 116.02 135.711 115.745 136.305C115.47 136.895 115.089 137.352 114.602 137.677C114.115 137.998 113.553 138.159 112.917 138.159C112.426 138.159 112.033 138.078 111.738 137.915C111.443 137.75 111.216 137.562 111.057 137.354C110.898 137.142 110.775 136.966 110.689 136.827H110.55V138H109.417ZM110.57 134.182C110.57 134.759 110.654 135.267 110.824 135.708C110.993 136.146 111.239 136.489 111.564 136.737C111.889 136.982 112.287 137.105 112.757 137.105C113.248 137.105 113.657 136.976 113.985 136.717C114.317 136.455 114.565 136.104 114.731 135.663C114.9 135.219 114.985 134.725 114.985 134.182C114.985 133.645 114.902 133.161 114.736 132.73C114.574 132.296 114.327 131.953 113.995 131.701C113.667 131.446 113.255 131.318 112.757 131.318C112.28 131.318 111.879 131.439 111.554 131.681C111.23 131.92 110.984 132.254 110.819 132.685C110.653 133.113 110.57 133.612 110.57 134.182ZM121.055 138.159C120.366 138.159 119.761 137.995 119.24 137.667C118.723 137.339 118.319 136.88 118.027 136.29C117.739 135.7 117.595 135.01 117.595 134.222C117.595 133.426 117.739 132.732 118.027 132.138C118.319 131.545 118.723 131.085 119.24 130.756C119.761 130.428 120.366 130.264 121.055 130.264C121.744 130.264 122.348 130.428 122.865 130.756C123.385 131.085 123.789 131.545 124.078 132.138C124.369 132.732 124.515 133.426 124.515 134.222C124.515 135.01 124.369 135.7 124.078 136.29C123.789 136.88 123.385 137.339 122.865 137.667C122.348 137.995 121.744 138.159 121.055 138.159ZM121.055 137.105C121.579 137.105 122.01 136.971 122.348 136.702C122.686 136.434 122.936 136.081 123.098 135.643C123.261 135.206 123.342 134.732 123.342 134.222C123.342 133.711 123.261 133.236 123.098 132.795C122.936 132.354 122.686 131.998 122.348 131.726C122.01 131.454 121.579 131.318 121.055 131.318C120.531 131.318 120.1 131.454 119.762 131.726C119.424 131.998 119.174 132.354 119.012 132.795C118.849 133.236 118.768 133.711 118.768 134.222C118.768 134.732 118.849 135.206 119.012 135.643C119.174 136.081 119.424 136.434 119.762 136.702C120.1 136.971 120.531 137.105 121.055 137.105ZM126.867 130.364L128.696 133.486L130.526 130.364H131.878L129.412 134.182L131.878 138H130.526L128.696 135.037L126.867 138H125.515L127.941 134.182L125.515 130.364H126.867ZM134.407 138.08C134.162 138.08 133.952 137.992 133.776 137.816C133.6 137.64 133.513 137.43 133.513 137.185C133.513 136.939 133.6 136.729 133.776 136.553C133.952 136.378 134.162 136.29 134.407 136.29C134.653 136.29 134.863 136.378 135.039 136.553C135.215 136.729 135.302 136.939 135.302 137.185C135.302 137.347 135.261 137.496 135.178 137.632C135.099 137.768 134.991 137.877 134.855 137.96C134.722 138.04 134.573 138.08 134.407 138.08Z" fill="#9DA1AE"/>
<rect x="340" y="76" width="40" height="24" rx="12" fill="#477FF7"/>
<circle cx="368" cy="88" r="8" fill="white"/>
<rect x="47.5" y="154.5" width="333" height="38" rx="8.5" fill="#17181C"/>
<path d="M62.2472 174.406V179H61.0739V168.818H62.2472V172.557H62.3466C62.5256 172.162 62.794 171.849 63.152 171.617C63.5133 171.382 63.9938 171.264 64.5938 171.264C65.1141 171.264 65.5698 171.369 65.9609 171.577C66.352 171.783 66.6553 172.099 66.8707 172.527C67.0895 172.951 67.1989 173.491 67.1989 174.148V179H66.0256V174.227C66.0256 173.621 65.8681 173.152 65.5533 172.82C65.2417 172.486 64.8092 172.318 64.2557 172.318C63.8712 172.318 63.5265 172.399 63.2216 172.562C62.92 172.724 62.6813 172.961 62.5057 173.273C62.3333 173.584 62.2472 173.962 62.2472 174.406ZM72.6664 171.364V172.358H68.709V171.364H72.6664ZM69.8624 169.534H71.0357V176.812C71.0357 177.144 71.0837 177.393 71.1799 177.558C71.2793 177.721 71.4052 177.83 71.5577 177.886C71.7135 177.939 71.8775 177.966 72.0499 177.966C72.1792 177.966 72.2852 177.959 72.3681 177.946C72.4509 177.929 72.5172 177.916 72.5669 177.906L72.8056 178.96C72.726 178.99 72.615 179.02 72.4725 179.05C72.33 179.083 72.1493 179.099 71.9306 179.099C71.5991 179.099 71.2743 179.028 70.9561 178.886C70.6413 178.743 70.3794 178.526 70.1706 178.234C69.9651 177.943 69.8624 177.575 69.8624 177.131V169.534ZM77.7523 171.364V172.358H73.7949V171.364H77.7523ZM74.9483 169.534H76.1216V176.812C76.1216 177.144 76.1697 177.393 76.2658 177.558C76.3652 177.721 76.4912 177.83 76.6436 177.886C76.7994 177.939 76.9635 177.966 77.1358 177.966C77.2651 177.966 77.3712 177.959 77.454 177.946C77.5369 177.929 77.6032 177.916 77.6529 177.906L77.8915 178.96C77.812 178.99 77.7009 179.02 77.5584 179.05C77.4159 179.083 77.2353 179.099 77.0165 179.099C76.6851 179.099 76.3603 179.028 76.0421 178.886C75.7272 178.743 75.4654 178.526 75.2566 178.234C75.0511 177.943 74.9483 177.575 74.9483 177.131V169.534ZM79.5172 181.864V171.364H80.6507V172.577H80.79C80.8761 172.444 80.9954 172.275 81.1479 172.07C81.3037 171.861 81.5257 171.675 81.8141 171.513C82.1058 171.347 82.5002 171.264 82.9973 171.264C83.6403 171.264 84.2071 171.425 84.6976 171.746C85.1882 172.068 85.571 172.524 85.8461 173.114C86.1212 173.704 86.2587 174.4 86.2587 175.202C86.2587 176.01 86.1212 176.711 85.8461 177.305C85.571 177.895 85.1898 178.352 84.7026 178.677C84.2154 178.998 83.6536 179.159 83.0172 179.159C82.5267 179.159 82.1339 179.078 81.839 178.915C81.544 178.75 81.3169 178.562 81.1578 178.354C80.9988 178.142 80.8761 177.966 80.79 177.827H80.6905V181.864H79.5172ZM80.6706 175.182C80.6706 175.759 80.7551 176.267 80.9242 176.708C81.0932 177.146 81.3401 177.489 81.665 177.737C81.9898 177.982 82.3875 178.105 82.8581 178.105C83.3487 178.105 83.758 177.976 84.0861 177.717C84.4176 177.455 84.6661 177.104 84.8319 176.663C85.0009 176.219 85.0854 175.725 85.0854 175.182C85.0854 174.645 85.0025 174.161 84.8368 173.73C84.6744 173.296 84.4275 172.953 84.0961 172.701C83.7679 172.446 83.3553 172.318 82.8581 172.318C82.3809 172.318 81.9798 172.439 81.655 172.681C81.3302 172.92 81.0849 173.254 80.9192 173.685C80.7535 174.113 80.6706 174.612 80.6706 175.182ZM93.4576 173.074L92.4036 173.372C92.3373 173.196 92.2395 173.026 92.1103 172.86C91.9843 172.691 91.812 172.552 91.5932 172.442C91.3745 172.333 91.0944 172.278 90.753 172.278C90.2857 172.278 89.8962 172.386 89.5847 172.602C89.2765 172.814 89.1223 173.084 89.1223 173.412C89.1223 173.704 89.2284 173.934 89.4405 174.103C89.6526 174.272 89.9841 174.413 90.4348 174.526L91.5684 174.804C92.2511 174.97 92.7599 175.223 93.0946 175.565C93.4294 175.903 93.5968 176.339 93.5968 176.872C93.5968 177.31 93.4708 177.701 93.2189 178.045C92.9703 178.39 92.6223 178.662 92.1749 178.861C91.7275 179.06 91.2071 179.159 90.6138 179.159C89.8349 179.159 89.1903 178.99 88.6799 178.652C88.1694 178.314 87.8463 177.82 87.7104 177.17L88.824 176.892C88.9301 177.303 89.1306 177.611 89.4256 177.817C89.7239 178.022 90.1133 178.125 90.5939 178.125C91.1408 178.125 91.575 178.009 91.8965 177.777C92.2213 177.542 92.3837 177.26 92.3837 176.932C92.3837 176.667 92.2909 176.445 92.1053 176.266C91.9197 176.083 91.6346 175.947 91.2502 175.858L89.9775 175.56C89.2781 175.394 88.7644 175.137 88.4363 174.789C88.1114 174.438 87.949 173.999 87.949 173.472C87.949 173.041 88.07 172.66 88.312 172.328C88.5572 171.997 88.8903 171.737 89.3113 171.548C89.7355 171.359 90.2161 171.264 90.753 171.264C91.5087 171.264 92.102 171.43 92.5328 171.761C92.967 172.093 93.2753 172.53 93.4576 173.074ZM96.218 179.08C95.9728 179.08 95.7623 178.992 95.5866 178.816C95.411 178.64 95.3232 178.43 95.3232 178.185C95.3232 177.939 95.411 177.729 95.5866 177.553C95.7623 177.378 95.9728 177.29 96.218 177.29C96.4633 177.29 96.6738 177.378 96.8494 177.553C97.0251 177.729 97.1129 177.939 97.1129 178.185C97.1129 178.347 97.0715 178.496 96.9886 178.632C96.9091 178.768 96.8014 178.877 96.6655 178.96C96.5329 179.04 96.3838 179.08 96.218 179.08ZM96.218 173.412C95.9728 173.412 95.7623 173.324 95.5866 173.148C95.411 172.973 95.3232 172.762 95.3232 172.517C95.3232 172.272 95.411 172.061 95.5866 171.886C95.7623 171.71 95.9728 171.622 96.218 171.622C96.4633 171.622 96.6738 171.71 96.8494 171.886C97.0251 172.061 97.1129 172.272 97.1129 172.517C97.1129 172.679 97.0715 172.829 96.9886 172.964C96.9091 173.1 96.8014 173.21 96.6655 173.293C96.5329 173.372 96.3838 173.412 96.218 173.412ZM102.818 168.341L99.5366 180.531H98.4627L101.744 168.341H102.818ZM107.808 168.341L104.527 180.531H103.453L106.734 168.341H107.808ZM110.929 179L108.602 171.364H109.835L111.486 177.21H111.565L113.196 171.364H114.449L116.06 177.19H116.139L117.79 171.364H119.023L116.696 179H115.543L113.872 173.134H113.753L112.082 179H110.929ZM122.304 179L119.977 171.364H121.21L122.861 177.21H122.94L124.571 171.364H125.824L127.435 177.19H127.514L129.165 171.364H130.398L128.071 179H126.918L125.247 173.134H125.128L123.457 179H122.304ZM133.679 179L131.352 171.364H132.585L134.236 177.21H134.315L135.946 171.364H137.199L138.81 177.19H138.889L140.54 171.364H141.773L139.446 179H138.293L136.622 173.134H136.503L134.832 179H133.679ZM143.14 179.08C142.895 179.08 142.684 178.992 142.509 178.816C142.333 178.64 142.245 178.43 142.245 178.185C142.245 177.939 142.333 177.729 142.509 177.553C142.684 177.378 142.895 177.29 143.14 177.29C143.385 177.29 143.596 177.378 143.771 177.553C143.947 177.729 144.035 177.939 144.035 178.185C144.035 178.347 143.993 178.496 143.911 178.632C143.831 178.768 143.723 178.877 143.587 178.96C143.455 179.04 143.306 179.08 143.14 179.08ZM151.549 173.074L150.495 173.372C150.429 173.196 150.331 173.026 150.202 172.86C150.076 172.691 149.904 172.552 149.685 172.442C149.466 172.333 149.186 172.278 148.845 172.278C148.377 172.278 147.988 172.386 147.676 172.602C147.368 172.814 147.214 173.084 147.214 173.412C147.214 173.704 147.32 173.934 147.532 174.103C147.744 174.272 148.076 174.413 148.527 174.526L149.66 174.804C150.343 174.97 150.852 175.223 151.186 175.565C151.521 175.903 151.689 176.339 151.689 176.872C151.689 177.31 151.563 177.701 151.311 178.045C151.062 178.39 150.714 178.662 150.267 178.861C149.819 179.06 149.299 179.159 148.706 179.159C147.927 179.159 147.282 178.99 146.772 178.652C146.261 178.314 145.938 177.82 145.802 177.17L146.916 176.892C147.022 177.303 147.222 177.611 147.517 177.817C147.816 178.022 148.205 178.125 148.686 178.125C149.233 178.125 149.667 178.009 149.988 177.777C150.313 177.542 150.475 177.26 150.475 176.932C150.475 176.667 150.383 176.445 150.197 176.266C150.011 176.083 149.726 175.947 149.342 175.858L148.069 175.56C147.37 175.394 146.856 175.137 146.528 174.789C146.203 174.438 146.041 173.999 146.041 173.472C146.041 173.041 146.162 172.66 146.404 172.328C146.649 171.997 146.982 171.737 147.403 171.548C147.827 171.359 148.308 171.264 148.845 171.264C149.6 171.264 150.194 171.43 150.625 171.761C151.059 172.093 151.367 172.53 151.549 173.074ZM154.628 168.818V179H153.455V168.818H154.628ZM159.024 179.179C158.54 179.179 158.101 179.088 157.707 178.906C157.312 178.72 156.999 178.453 156.767 178.105C156.535 177.754 156.419 177.33 156.419 176.832C156.419 176.395 156.505 176.04 156.678 175.768C156.85 175.493 157.08 175.278 157.369 175.122C157.657 174.966 157.975 174.85 158.323 174.774C158.674 174.695 159.027 174.632 159.382 174.585C159.846 174.526 160.222 174.481 160.511 174.451C160.802 174.418 161.014 174.363 161.147 174.287C161.283 174.211 161.351 174.078 161.351 173.889V173.849C161.351 173.359 161.217 172.978 160.948 172.706C160.683 172.434 160.28 172.298 159.74 172.298C159.18 172.298 158.741 172.421 158.423 172.666C158.104 172.911 157.881 173.173 157.751 173.452L156.638 173.054C156.837 172.59 157.102 172.229 157.433 171.97C157.768 171.708 158.133 171.526 158.527 171.423C158.925 171.317 159.316 171.264 159.7 171.264C159.946 171.264 160.227 171.294 160.545 171.354C160.867 171.41 161.177 171.528 161.475 171.707C161.777 171.886 162.027 172.156 162.226 172.517C162.425 172.878 162.524 173.362 162.524 173.969V179H161.351V177.966H161.291C161.212 178.132 161.079 178.309 160.893 178.498C160.708 178.687 160.461 178.848 160.153 178.98C159.844 179.113 159.468 179.179 159.024 179.179ZM159.203 178.125C159.667 178.125 160.058 178.034 160.376 177.852C160.698 177.669 160.94 177.434 161.102 177.146C161.268 176.857 161.351 176.554 161.351 176.236V175.162C161.301 175.222 161.192 175.276 161.023 175.326C160.857 175.372 160.665 175.414 160.446 175.45C160.231 175.483 160.02 175.513 159.815 175.54C159.612 175.563 159.448 175.583 159.322 175.599C159.018 175.639 158.732 175.704 158.467 175.793C158.205 175.879 157.993 176.01 157.831 176.186C157.672 176.358 157.592 176.594 157.592 176.892C157.592 177.3 157.743 177.608 158.045 177.817C158.35 178.022 158.736 178.125 159.203 178.125ZM164.666 179V171.364H165.839V179H164.666ZM165.262 170.091C165.034 170.091 164.836 170.013 164.671 169.857C164.508 169.701 164.427 169.514 164.427 169.295C164.427 169.077 164.508 168.889 164.671 168.734C164.836 168.578 165.034 168.5 165.262 168.5C165.491 168.5 165.686 168.578 165.849 168.734C166.015 168.889 166.097 169.077 166.097 169.295C166.097 169.514 166.015 169.701 165.849 169.857C165.686 170.013 165.491 170.091 165.262 170.091ZM168.843 179.08C168.598 179.08 168.387 178.992 168.212 178.816C168.036 178.64 167.948 178.43 167.948 178.185C167.948 177.939 168.036 177.729 168.212 177.553C168.387 177.378 168.598 177.29 168.843 177.29C169.088 177.29 169.299 177.378 169.474 177.553C169.65 177.729 169.738 177.939 169.738 178.185C169.738 178.347 169.696 178.496 169.614 178.632C169.534 178.768 169.426 178.877 169.29 178.96C169.158 179.04 169.009 179.08 168.843 179.08ZM171.843 179V171.364H173.017V179H171.843ZM172.44 170.091C172.211 170.091 172.014 170.013 171.848 169.857C171.686 169.701 171.605 169.514 171.605 169.295C171.605 169.077 171.686 168.889 171.848 168.734C172.014 168.578 172.211 168.5 172.44 168.5C172.669 168.5 172.864 168.578 173.027 168.734C173.192 168.889 173.275 169.077 173.275 169.295C173.275 169.514 173.192 169.701 173.027 169.857C172.864 170.013 172.669 170.091 172.44 170.091ZM178.268 179.159C177.579 179.159 176.974 178.995 176.453 178.667C175.936 178.339 175.532 177.88 175.24 177.29C174.952 176.7 174.808 176.01 174.808 175.222C174.808 174.426 174.952 173.732 175.24 173.138C175.532 172.545 175.936 172.085 176.453 171.756C176.974 171.428 177.579 171.264 178.268 171.264C178.957 171.264 179.561 171.428 180.078 171.756C180.598 172.085 181.002 172.545 181.291 173.138C181.582 173.732 181.728 174.426 181.728 175.222C181.728 176.01 181.582 176.7 181.291 177.29C181.002 177.88 180.598 178.339 180.078 178.667C179.561 178.995 178.957 179.159 178.268 179.159ZM178.268 178.105C178.792 178.105 179.222 177.971 179.561 177.702C179.899 177.434 180.149 177.081 180.311 176.643C180.474 176.206 180.555 175.732 180.555 175.222C180.555 174.711 180.474 174.236 180.311 173.795C180.149 173.354 179.899 172.998 179.561 172.726C179.222 172.454 178.792 172.318 178.268 172.318C177.744 172.318 177.313 172.454 176.975 172.726C176.637 172.998 176.387 173.354 176.225 173.795C176.062 174.236 175.981 174.711 175.981 175.222C175.981 175.732 176.062 176.206 176.225 176.643C176.387 177.081 176.637 177.434 176.975 177.702C177.313 177.971 177.744 178.105 178.268 178.105ZM187.119 168.341L183.837 180.531H182.763L186.045 168.341H187.119ZM193.919 173.074L192.865 173.372C192.798 173.196 192.7 173.026 192.571 172.86C192.445 172.691 192.273 172.552 192.054 172.442C191.835 172.333 191.555 172.278 191.214 172.278C190.747 172.278 190.357 172.386 190.046 172.602C189.737 172.814 189.583 173.084 189.583 173.412C189.583 173.704 189.689 173.934 189.901 174.103C190.114 174.272 190.445 174.413 190.896 174.526L192.029 174.804C192.712 174.97 193.221 175.223 193.556 175.565C193.89 175.903 194.058 176.339 194.058 176.872C194.058 177.31 193.932 177.701 193.68 178.045C193.431 178.39 193.083 178.662 192.636 178.861C192.188 179.06 191.668 179.159 191.075 179.159C190.296 179.159 189.651 178.99 189.141 178.652C188.63 178.314 188.307 177.82 188.171 177.17L189.285 176.892C189.391 177.303 189.592 177.611 189.887 177.817C190.185 178.022 190.574 178.125 191.055 178.125C191.602 178.125 192.036 178.009 192.357 177.777C192.682 177.542 192.845 177.26 192.845 176.932C192.845 176.667 192.752 176.445 192.566 176.266C192.381 176.083 192.096 175.947 191.711 175.858L190.438 175.56C189.739 175.394 189.225 175.137 188.897 174.789C188.572 174.438 188.41 173.999 188.41 173.472C188.41 173.041 188.531 172.66 188.773 172.328C189.018 171.997 189.351 171.737 189.772 171.548C190.196 171.359 190.677 171.264 191.214 171.264C191.97 171.264 192.563 171.43 192.994 171.761C193.428 172.093 193.736 172.53 193.919 173.074ZM199.423 168.341L196.142 180.531H195.068L198.349 168.341H199.423ZM200.556 176.912V175.898L205.03 168.818H205.766V170.389H205.269L201.888 175.739V175.818H207.914V176.912H200.556ZM205.348 179V176.604V176.131V168.818H206.521V179H205.348ZM210.97 174.406V179H209.797V168.818H210.97V172.557H211.069C211.248 172.162 211.517 171.849 211.875 171.617C212.236 171.382 212.717 171.264 213.316 171.264C213.837 171.264 214.292 171.369 214.684 171.577C215.075 171.783 215.378 172.099 215.593 172.527C215.812 172.951 215.922 173.491 215.922 174.148V179H214.748V174.227C214.748 173.621 214.591 173.152 214.276 172.82C213.964 172.486 213.532 172.318 212.978 172.318C212.594 172.318 212.249 172.399 211.944 172.562C211.643 172.724 211.404 172.961 211.228 173.273C211.056 173.584 210.97 173.962 210.97 174.406ZM221.29 168.679C221.707 168.682 222.125 168.762 222.542 168.918C222.96 169.073 223.341 169.332 223.686 169.693C224.031 170.051 224.307 170.54 224.516 171.16C224.725 171.78 224.829 172.557 224.829 173.491C224.829 174.396 224.743 175.2 224.571 175.903C224.402 176.602 224.157 177.192 223.835 177.673C223.517 178.153 223.129 178.518 222.672 178.766C222.218 179.015 221.704 179.139 221.131 179.139C220.56 179.139 220.052 179.027 219.604 178.801C219.16 178.572 218.796 178.256 218.51 177.852C218.229 177.444 218.048 176.972 217.969 176.435H219.182C219.291 176.902 219.508 177.288 219.833 177.593C220.161 177.895 220.594 178.045 221.131 178.045C221.916 178.045 222.536 177.702 222.99 177.016C223.447 176.33 223.676 175.361 223.676 174.108H223.596C223.411 174.386 223.19 174.627 222.935 174.829C222.68 175.031 222.397 175.187 222.085 175.296C221.773 175.406 221.442 175.46 221.091 175.46C220.507 175.46 219.972 175.316 219.485 175.028C219.001 174.736 218.613 174.337 218.322 173.83C218.033 173.319 217.889 172.736 217.889 172.08C217.889 171.456 218.028 170.886 218.307 170.369C218.588 169.849 218.983 169.435 219.49 169.126C220 168.818 220.6 168.669 221.29 168.679ZM221.29 169.773C220.872 169.773 220.496 169.877 220.161 170.086C219.83 170.291 219.566 170.57 219.371 170.921C219.178 171.269 219.082 171.655 219.082 172.08C219.082 172.504 219.175 172.89 219.361 173.238C219.55 173.583 219.806 173.858 220.131 174.063C220.459 174.265 220.832 174.366 221.25 174.366C221.565 174.366 221.858 174.305 222.13 174.183C222.402 174.057 222.639 173.886 222.841 173.67C223.046 173.452 223.207 173.205 223.323 172.93C223.439 172.651 223.497 172.361 223.497 172.06C223.497 171.662 223.401 171.289 223.209 170.941C223.02 170.593 222.758 170.311 222.423 170.096C222.092 169.88 221.714 169.773 221.29 169.773ZM226.804 181.864V171.364H227.938V172.577H228.077C228.163 172.444 228.283 172.275 228.435 172.07C228.591 171.861 228.813 171.675 229.101 171.513C229.393 171.347 229.787 171.264 230.284 171.264C230.927 171.264 231.494 171.425 231.985 171.746C232.475 172.068 232.858 172.524 233.133 173.114C233.408 173.704 233.546 174.4 233.546 175.202C233.546 176.01 233.408 176.711 233.133 177.305C232.858 177.895 232.477 178.352 231.99 178.677C231.502 178.998 230.941 179.159 230.304 179.159C229.814 179.159 229.421 179.078 229.126 178.915C228.831 178.75 228.604 178.562 228.445 178.354C228.286 178.142 228.163 177.966 228.077 177.827H227.978V181.864H226.804ZM227.958 175.182C227.958 175.759 228.042 176.267 228.211 176.708C228.38 177.146 228.627 177.489 228.952 177.737C229.277 177.982 229.675 178.105 230.145 178.105C230.636 178.105 231.045 177.976 231.373 177.717C231.705 177.455 231.953 177.104 232.119 176.663C232.288 176.219 232.373 175.725 232.373 175.182C232.373 174.645 232.29 174.161 232.124 173.73C231.962 173.296 231.715 172.953 231.383 172.701C231.055 172.446 230.642 172.318 230.145 172.318C229.668 172.318 229.267 172.439 228.942 172.681C228.617 172.92 228.372 173.254 228.206 173.685C228.041 174.113 227.958 174.612 227.958 175.182ZM235.495 179V168.818H236.668V172.577H236.767C236.854 172.444 236.973 172.275 237.125 172.07C237.281 171.861 237.503 171.675 237.792 171.513C238.083 171.347 238.478 171.264 238.975 171.264C239.618 171.264 240.185 171.425 240.675 171.746C241.166 172.068 241.548 172.524 241.824 173.114C242.099 173.704 242.236 174.4 242.236 175.202C242.236 176.01 242.099 176.711 241.824 177.305C241.548 177.895 241.167 178.352 240.68 178.677C240.193 178.998 239.631 179.159 238.995 179.159C238.504 179.159 238.111 179.078 237.816 178.915C237.521 178.75 237.294 178.562 237.135 178.354C236.976 178.142 236.854 177.966 236.767 177.827H236.628V179H235.495ZM236.648 175.182C236.648 175.759 236.733 176.267 236.902 176.708C237.071 177.146 237.318 177.489 237.642 177.737C237.967 177.982 238.365 178.105 238.836 178.105C239.326 178.105 239.735 177.976 240.064 177.717C240.395 177.455 240.644 177.104 240.809 176.663C240.978 176.219 241.063 175.725 241.063 175.182C241.063 174.645 240.98 174.161 240.814 173.73C240.652 173.296 240.405 172.953 240.074 172.701C239.745 172.446 239.333 172.318 238.836 172.318C238.358 172.318 237.957 172.439 237.632 172.681C237.308 172.92 237.062 173.254 236.897 173.685C236.731 174.113 236.648 174.612 236.648 175.182Z" fill="#E3E4E8"/>
<path d="M341.575 172.129H340.024C339.964 171.798 339.853 171.506 339.691 171.254C339.529 171.002 339.33 170.789 339.094 170.613C338.859 170.437 338.596 170.305 338.304 170.215C338.016 170.126 337.709 170.081 337.384 170.081C336.798 170.081 336.272 170.228 335.808 170.523C335.348 170.818 334.983 171.251 334.714 171.821C334.449 172.391 334.317 173.087 334.317 173.909C334.317 174.738 334.449 175.437 334.714 176.007C334.983 176.577 335.349 177.008 335.813 177.3C336.277 177.591 336.799 177.737 337.379 177.737C337.701 177.737 338.006 177.694 338.294 177.608C338.586 177.518 338.849 177.388 339.085 177.215C339.32 177.043 339.519 176.832 339.681 176.584C339.847 176.332 339.961 176.044 340.024 175.719L341.575 175.724C341.492 176.224 341.332 176.685 341.093 177.106C340.858 177.523 340.554 177.885 340.183 178.19C339.815 178.491 339.394 178.725 338.92 178.891C338.446 179.056 337.929 179.139 337.369 179.139C336.488 179.139 335.702 178.93 335.013 178.513C334.323 178.092 333.78 177.49 333.382 176.708C332.988 175.926 332.79 174.993 332.79 173.909C332.79 172.822 332.989 171.889 333.387 171.11C333.785 170.328 334.328 169.728 335.018 169.31C335.707 168.889 336.491 168.679 337.369 168.679C337.91 168.679 338.413 168.757 338.881 168.913C339.351 169.065 339.774 169.29 340.148 169.589C340.523 169.884 340.833 170.245 341.078 170.673C341.323 171.097 341.489 171.582 341.575 172.129ZM346.511 179.154C345.795 179.154 345.17 178.99 344.637 178.662C344.103 178.334 343.689 177.875 343.394 177.285C343.099 176.695 342.951 176.005 342.951 175.217C342.951 174.424 343.099 173.732 343.394 173.138C343.689 172.545 344.103 172.085 344.637 171.756C345.17 171.428 345.795 171.264 346.511 171.264C347.227 171.264 347.852 171.428 348.385 171.756C348.919 172.085 349.333 172.545 349.628 173.138C349.923 173.732 350.07 174.424 350.07 175.217C350.07 176.005 349.923 176.695 349.628 177.285C349.333 177.875 348.919 178.334 348.385 178.662C347.852 178.99 347.227 179.154 346.511 179.154ZM346.516 177.906C346.98 177.906 347.364 177.784 347.669 177.538C347.974 177.293 348.2 176.967 348.345 176.559C348.494 176.151 348.569 175.702 348.569 175.212C348.569 174.724 348.494 174.277 348.345 173.869C348.2 173.458 347.974 173.129 347.669 172.88C347.364 172.631 346.98 172.507 346.516 172.507C346.048 172.507 345.661 172.631 345.352 172.88C345.048 173.129 344.82 173.458 344.671 173.869C344.526 174.277 344.453 174.724 344.453 175.212C344.453 175.702 344.526 176.151 344.671 176.559C344.82 176.967 345.048 177.293 345.352 177.538C345.661 177.784 346.048 177.906 346.516 177.906ZM351.73 181.864V171.364H353.181V172.602H353.306C353.392 172.442 353.516 172.259 353.679 172.05C353.841 171.841 354.066 171.659 354.355 171.503C354.643 171.344 355.024 171.264 355.498 171.264C356.115 171.264 356.665 171.42 357.149 171.732C357.633 172.043 358.012 172.492 358.287 173.079C358.566 173.665 358.705 174.371 358.705 175.197C358.705 176.022 358.567 176.73 358.292 177.32C358.017 177.906 357.639 178.359 357.159 178.677C356.678 178.992 356.13 179.149 355.513 179.149C355.049 179.149 354.67 179.071 354.375 178.915C354.083 178.76 353.854 178.577 353.689 178.369C353.523 178.16 353.395 177.974 353.306 177.812H353.216V181.864H351.73ZM353.186 175.182C353.186 175.719 353.264 176.189 353.42 176.594C353.576 176.998 353.801 177.315 354.096 177.543C354.391 177.769 354.752 177.881 355.18 177.881C355.624 177.881 355.995 177.764 356.294 177.528C356.592 177.29 356.817 176.967 356.97 176.559C357.126 176.151 357.203 175.692 357.203 175.182C357.203 174.678 357.127 174.226 356.975 173.825C356.826 173.424 356.6 173.107 356.299 172.875C356 172.643 355.627 172.527 355.18 172.527C354.749 172.527 354.385 172.638 354.086 172.86C353.791 173.082 353.568 173.392 353.415 173.79C353.263 174.187 353.186 174.652 353.186 175.182ZM361.05 181.864C360.828 181.864 360.626 181.845 360.444 181.809C360.261 181.776 360.126 181.739 360.036 181.7L360.394 180.482C360.666 180.554 360.908 180.586 361.12 180.576C361.332 180.566 361.519 180.487 361.682 180.337C361.847 180.188 361.993 179.945 362.119 179.607L362.303 179.099L359.509 171.364H361.1L363.034 177.29H363.113L365.047 171.364H366.643L363.496 180.019C363.35 180.417 363.165 180.753 362.939 181.028C362.714 181.307 362.446 181.516 362.134 181.655C361.823 181.794 361.461 181.864 361.05 181.864Z" fill="#9DA1AE"/>
<rect x="47.5" y="154.5" width="333" height="38" rx="8.5" stroke="#24262B"/>
<rect x="0.5" y="0.5" width="399" height="211" rx="7.5" stroke="#24262B"/>
</svg>
